<?xml version="1.0" standalone="no"?>
<!DOCTYPE svg PUBLIC "-//W3C//DTD SVG 20010904//EN"
 "http://www.w3.org/TR/2001/REC-SVG-20010904/DTD/svg10.dtd">
<svg version="1.0" xmlns="http://www.w3.org/2000/svg"
 width="763.000000pt" height="804.000000pt" viewBox="0 0 763.000000 804.000000"
 preserveAspectRatio="xMidYMid meet">

<g transform="translate(0.000000,804.000000) scale(0.100000,-0.100000)"
fill="#000000" stroke="none">
<path d="M3636 7933 c-24 -26 -26 -43 -5 -43 6 0 31 -16 55 -36 45 -37 56 -70
28 -81 -22 -8 -82 25 -107 59 -12 16 -26 28 -32 28 -6 0 -19 6 -29 13 -16 12
-16 14 5 41 l23 29 -30 -7 c-76 -18 -103 -27 -108 -34 -2 -4 34 -40 79 -81 89
-78 94 -91 44 -116 -39 -21 -51 -19 -74 14 -64 92 -169 181 -214 181 -43 0
-46 -15 -9 -41 18 -12 52 -38 75 -56 l43 -34 -107 -105 c-59 -57 -112 -105
-118 -108 -5 -2 1 -15 14 -29 26 -29 23 -57 -8 -57 -13 0 -29 18 -49 53 -16
28 -59 78 -96 110 -36 32 -66 64 -66 72 0 8 -4 16 -9 19 -10 7 -155 -158 -210
-239 -22 -33 -98 -136 -168 -230 -126 -167 -176 -214 -226 -215 -16 0 -16 2
-3 28 27 52 126 197 203 299 93 122 106 149 78 169 -18 13 -65 20 -65 9 0 -3
5 -14 12 -25 11 -16 9 -23 -14 -47 -14 -15 -33 -42 -41 -59 -9 -17 -23 -34
-32 -37 -8 -4 -15 -18 -15 -31 0 -17 -11 -34 -33 -50 -21 -16 -38 -41 -45 -65
-7 -21 -19 -44 -27 -51 -8 -7 -15 -17 -15 -22 0 -5 -19 -41 -41 -79 -39 -66
-83 -109 -109 -109 -30 0 30 160 75 202 21 20 25 30 20 51 -11 44 -75 31 -75
-15 0 -10 -16 -35 -35 -57 -19 -21 -35 -45 -35 -52 0 -8 -19 -38 -41 -68 -41
-54 -50 -68 -101 -155 l-27 -46 42 26 c44 27 273 138 342 166 264 106 712 214
1000 243 118 11 371 16 384 7 27 -19 0 -30 -91 -36 -251 -18 -363 -28 -468
-46 -63 -10 -137 -21 -165 -25 -114 -15 -474 -116 -570 -160 -27 -12 -61 -26
-75 -30 -14 -4 -50 -21 -81 -36 -31 -16 -60 -29 -63 -29 -12 0 -168 -91 -267
-157 -144 -94 -179 -140 -179 -235 0 -43 2 -49 15 -38 8 7 -1 -26 -22 -77 -36
-90 -53 -200 -39 -257 10 -39 23 -31 41 24 9 27 21 52 26 55 5 4 6 -1 3 -10
-5 -11 -2 -14 12 -9 11 4 25 14 32 22 6 9 12 13 12 9 0 -3 12 5 26 18 32 30
45 31 69 5 20 -22 14 -50 -12 -50 -10 0 -35 -18 -55 -39 l-36 -39 36 -43 c20
-23 60 -66 87 -96 l51 -55 62 106 c34 58 68 106 75 106 7 0 23 -7 35 -16 26
-18 30 -78 7 -103 -8 -9 -48 -61 -88 -116 -40 -55 -82 -107 -92 -115 -40 -33
-165 -214 -165 -239 0 -10 9 -26 21 -37 12 -10 30 -36 41 -57 21 -42 17 -72
-14 -96 -10 -9 -23 -36 -29 -60 -5 -23 -29 -84 -53 -135 -25 -50 -47 -101 -51
-114 -3 -12 -15 -27 -26 -32 -10 -6 -19 -21 -19 -34 0 -37 58 -124 131 -196
37 -36 74 -77 84 -92 9 -15 21 -25 26 -22 5 3 6 -2 3 -10 -3 -9 -1 -16 5 -16
6 0 11 -17 11 -40 0 -28 -4 -38 -12 -34 -11 5 -147 157 -223 249 -19 24 -24
26 -25 12 0 -10 13 -30 30 -45 31 -29 63 -103 54 -126 -6 -16 6 -28 54 -57 18
-10 38 -31 44 -45 11 -24 10 -29 -9 -41 -21 -14 -21 -16 -6 -49 9 -19 20 -34
23 -34 3 0 14 16 23 35 9 19 23 35 31 35 23 0 39 -38 31 -77 -6 -34 -7 -34
-26 -17 -18 16 -19 16 -19 -3 0 -11 12 -51 26 -89 21 -56 23 -72 14 -90 -8
-13 -19 -20 -30 -17 -15 4 -18 -4 -22 -59 -9 -142 -160 -350 -396 -550 -46
-38 -81 -72 -78 -75 11 -11 148 50 163 73 12 19 19 22 29 13 17 -14 56 -118
49 -130 -14 -21 15 -7 37 19 13 15 41 40 63 56 22 17 74 62 115 101 88 84 138
125 151 125 5 0 9 -13 9 -28 0 -23 -12 -38 -60 -75 -33 -26 -60 -51 -60 -55 0
-5 33 -24 73 -43 54 -26 73 -40 75 -56 4 -28 -7 -29 -52 -2 -38 22 -126 49
-163 49 -27 0 -31 -25 -5 -35 9 -4 62 -22 117 -40 84 -28 102 -38 109 -59 6
-14 7 -28 4 -31 -3 -4 -32 5 -64 18 -33 14 -96 35 -142 48 l-82 22 -25 -23
c-13 -12 -32 -42 -42 -65 -14 -34 -22 -42 -44 -43 -39 -1 -88 -29 -101 -56 -8
-19 -5 -38 12 -92 20 -58 22 -80 17 -159 -7 -100 -14 -128 -31 -122 -22 7 -56
70 -56 104 0 20 -4 32 -10 28 -14 -9 -13 -5 11 46 12 24 28 48 35 52 14 8 20
37 8 37 -3 0 -39 -16 -79 -36 -64 -32 -75 -34 -94 -22 -26 16 -35 41 -22 65
10 18 31 165 31 215 0 47 -30 38 -98 -29 -35 -35 -67 -63 -71 -63 -9 0 -59 48
-105 100 -27 31 -28 37 -23 99 4 36 10 77 13 91 6 20 -5 14 -57 -35 -35 -33
-66 -64 -68 -69 -2 -5 48 -59 112 -120 113 -109 186 -191 317 -356 36 -45 88
-110 116 -144 28 -33 73 -91 100 -127 27 -36 78 -101 114 -144 l65 -78 3 32
c2 18 -2 47 -8 64 -6 18 -14 93 -17 167 -5 118 -2 146 17 220 12 46 33 111 47
145 14 33 29 70 34 82 8 23 9 23 46 6 64 -29 141 -81 157 -105 17 -25 59 -255
50 -270 -3 -4 -32 -22 -65 -38 -119 -60 -240 -219 -238 -311 l1 -34 9 30 c31
94 88 189 139 233 32 27 134 92 145 92 7 0 16 -32 23 -82 7 -45 11 -82 9 -83
-1 -1 -28 -19 -60 -40 -77 -50 -130 -126 -162 -230 -30 -98 -31 -127 -6 -180
24 -53 52 -76 97 -80 44 -4 63 -20 46 -37 -17 -17 -85 6 -122 44 -34 33 -83
124 -110 204 -12 33 -37 71 -73 110 -31 32 -75 84 -99 115 -24 31 -95 117
-158 190 -64 74 -133 157 -155 184 -120 152 -420 459 -438 448 -5 -3 -4 -9 3
-13 9 -5 9 -9 1 -14 -17 -11 -13 -26 7 -27 13 0 14 -2 2 -6 -45 -18 -40 -29
45 -108 117 -106 202 -205 757 -890 103 -126 204 -248 225 -271 21 -22 55 -59
76 -82 l37 -42 11 27 c6 16 13 42 16 58 15 76 53 92 53 22 0 -24 5 -48 10 -53
11 -11 3 -44 -11 -44 -4 0 -11 -17 -14 -38 -3 -20 -8 -50 -11 -67 -3 -23 -2
-27 8 -17 7 7 22 12 35 12 12 0 31 10 43 22 16 18 22 20 33 9 9 -11 9 -14 0
-18 -7 -3 -13 -11 -13 -19 0 -8 -4 -14 -10 -14 -25 0 -5 -34 61 -104 l71 -77
53 48 c28 27 66 59 83 73 31 24 32 27 36 124 6 103 13 123 42 112 15 -6 16
-20 10 -149 -4 -78 -11 -239 -16 -357 -16 -390 -21 -485 -26 -507 -4 -21 -10
-23 -75 -23 -62 0 -70 -2 -59 -15 7 -8 10 -26 8 -39 -5 -24 -4 -24 100 -31 57
-4 108 -3 112 1 5 5 13 128 20 274 16 384 39 714 57 800 15 78 23 97 24 64 0
-10 2 -62 4 -114 4 -119 -25 -685 -51 -1002 l-7 -78 -156 0 c-86 0 -247 5
-359 11 -112 6 -205 10 -207 7 -2 -2 -7 -31 -11 -64 -4 -34 -14 -64 -22 -70
-13 -9 -6 -14 34 -27 27 -9 81 -21 119 -27 98 -14 121 -20 108 -28 -12 -8 282
-17 537 -17 l165 0 7 150 c4 83 14 233 23 335 8 102 19 255 25 340 5 85 22
284 37 442 l28 288 233 0 234 0 -3 -390 c-2 -253 1 -394 7 -400 7 -7 74 -9
175 -8 l164 3 6 355 c4 195 7 374 8 398 l1 43 220 -2 220 -2 0 -51 c0 -28 9
-125 19 -216 11 -91 25 -230 31 -310 20 -259 68 -759 88 -920 l7 -55 338 0
c185 0 337 -3 337 -6 0 -3 -9 -10 -19 -15 -17 -8 -17 -11 -5 -22 11 -11 14
-10 14 2 0 12 7 14 30 9 17 -3 30 -1 30 4 0 15 84 2 98 -15 12 -15 13 -11 10
26 -3 36 -1 43 17 47 11 3 55 12 98 20 115 23 130 32 122 69 -3 17 -10 52 -14
79 -5 26 -11 50 -14 53 -3 3 -38 1 -79 -5 -77 -12 -306 -25 -600 -37 -170 -6
-178 -6 -178 12 0 11 -9 100 -20 199 -43 388 -72 906 -52 941 15 27 16 26 41
-146 5 -36 14 -164 21 -285 10 -209 46 -625 55 -653 4 -9 35 -12 131 -10 l126
3 2 43 2 42 -87 0 c-74 0 -90 3 -98 18 -5 9 -14 116 -20 237 -7 121 -17 290
-23 375 -5 85 -11 212 -13 282 l-3 126 101 -3 c89 -4 150 -9 167 -15 17 -6
-40 -16 -60 -10 -14 3 -54 2 -90 -4 -61 -10 -65 -13 -68 -40 -2 -16 1 -33 7
-39 6 -6 11 -44 11 -84 0 -71 1 -74 28 -85 15 -6 42 -25 60 -42 l32 -30 70 69
c39 38 70 76 70 85 0 8 -18 35 -40 58 l-40 44 -73 -1 c-67 0 -71 1 -52 15 15
12 37 15 86 11 59 -4 75 -10 142 -53 42 -27 76 -53 76 -58 1 -5 27 -37 59 -70
32 -34 67 -74 79 -91 l21 -30 27 25 c51 47 51 55 -6 263 -13 48 -49 289 -49
328 0 119 82 -130 145 -441 14 -69 25 -136 25 -150 0 -24 1 -24 18 7 9 17 78
88 152 156 182 169 265 261 622 697 263 319 363 420 549 552 l86 60 -67 70
-66 71 -35 -18 c-149 -77 -326 -258 -714 -730 -299 -363 -340 -413 -394 -469
-31 -32 -83 -81 -115 -108 -47 -39 -61 -47 -67 -35 -18 31 26 112 113 207 99
108 270 321 455 565 194 256 282 362 365 443 112 108 137 129 218 179 41 26
77 48 79 50 3 2 -15 23 -39 48 l-43 44 -39 -32 c-170 -136 -274 -245 -465
-482 -162 -203 -238 -297 -288 -359 -28 -33 -84 -104 -125 -156 -106 -135
-245 -290 -260 -290 -4 0 -10 12 -13 26 -3 20 6 38 42 82 41 50 103 130 247
318 21 28 77 100 124 159 47 60 99 128 115 151 163 228 319 412 432 508 47 39
90 73 97 76 6 3 29 21 49 39 l38 35 -60 58 c-32 32 -63 58 -67 58 -8 0 1 -95
11 -121 9 -24 -53 -68 -66 -48 -12 19 -11 181 0 213 7 18 6 28 -4 36 -28 23
-104 -52 -179 -178 -38 -62 -38 -63 -20 -85 21 -24 46 -46 54 -47 3 0 11 31
17 70 7 49 19 81 38 106 15 19 28 34 30 32 1 -2 5 -52 9 -111 l6 -109 -49 -51
-49 -51 -38 29 c-22 16 -50 42 -63 58 -15 18 -27 24 -35 18 -6 -5 -30 -12 -53
-16 -24 -4 -45 -10 -47 -14 -10 -15 28 -206 50 -256 2 -6 -2 -20 -10 -30 -14
-19 -18 -16 -86 55 -65 68 -70 76 -59 97 9 16 10 55 5 138 l-6 116 27 -14 c60
-30 123 -32 123 -3 0 7 -17 22 -37 34 -62 35 -226 209 -281 298 -27 45 -68
104 -90 133 -31 39 -40 59 -37 79 12 80 15 194 4 214 -11 20 -13 18 -32 -26
-17 -40 -18 -54 -10 -92 6 -24 6 -44 2 -44 -5 0 -9 10 -9 23 0 12 -7 33 -15
47 -26 45 -53 105 -60 133 -6 20 -4 27 8 27 23 0 151 188 130 191 -5 1 -24 0
-44 -1 -21 -1 -40 4 -44 10 -3 6 12 33 35 60 l42 50 64 -67 63 -68 -6 35 c-3
19 -17 64 -30 99 -14 36 -21 72 -17 84 6 19 8 18 31 -12 28 -35 38 -38 47 -15
4 10 -4 30 -19 50 -23 30 -25 36 -12 54 14 19 14 19 37 -5 27 -28 42 -31 59
-11 10 11 8 23 -9 56 -26 51 -19 65 22 44 29 -15 32 -15 44 0 15 21 14 185 -1
188 -5 1 -21 -14 -35 -34 -109 -154 -180 -250 -229 -308 -31 -37 -74 -93 -96
-124 -22 -31 -44 -56 -49 -56 -5 0 -6 24 -3 53 5 56 40 127 62 127 7 0 15 7
19 15 3 8 1 15 -4 15 -10 0 -3 82 11 119 13 33 59 101 70 101 22 0 19 -44 -6
-85 -16 -28 -23 -50 -18 -59 6 -10 19 3 49 48 86 129 179 268 188 280 6 9 1
24 -14 44 -28 38 -40 40 -40 10 0 -30 -83 -182 -101 -186 -14 -3 -26 21 -50
97 -7 25 -23 56 -34 70 -20 25 -23 61 -5 61 13 0 43 -59 49 -99 l6 -34 49 63
49 62 -22 21 c-17 17 -24 19 -30 9 -28 -46 -120 103 -106 170 4 15 13 28 20
28 15 0 46 -49 66 -104 20 -54 37 -66 59 -38 10 12 24 22 32 22 7 0 24 19 36
43 69 124 74 136 67 167 -7 30 -8 31 -26 14 -10 -9 -19 -22 -19 -27 0 -10 -30
-36 -42 -37 -15 0 -59 103 -65 153 -4 33 -13 57 -24 65 -10 6 -22 27 -28 45
-6 17 -34 77 -61 132 -35 71 -49 92 -50 74 0 -14 -9 -36 -20 -49 -25 -29 -25
-41 -1 -71 10 -13 29 -44 41 -69 13 -25 34 -60 48 -77 23 -32 24 -34 7 -59
-16 -24 -18 -25 -35 -9 -11 10 -38 56 -61 102 -39 79 -43 84 -56 67 -33 -43
-34 -51 -8 -68 13 -8 40 -47 61 -86 20 -39 43 -70 51 -70 18 0 13 -27 -22
-113 -21 -54 -22 -61 -9 -92 17 -42 17 -45 1 -45 -14 0 -37 40 -37 65 0 8 -4
15 -8 15 -13 0 -45 62 -53 104 l-7 41 20 -28 c40 -55 52 -4 14 66 -13 25 -28
59 -34 76 -11 32 -11 32 -37 15 -26 -17 -27 -17 -58 14 l-31 32 32 62 c18 35
32 68 32 74 0 6 15 30 33 54 45 59 85 121 97 149 6 14 28 43 49 66 21 23 51
63 67 91 15 27 32 51 36 52 4 2 8 10 8 17 0 14 27 28 33 17 3 -4 8 -33 12 -65
l7 -59 -50 -46 c-74 -70 -76 -75 -37 -152 18 -36 40 -89 49 -117 10 -29 26
-63 35 -75 l18 -22 16 30 c8 16 29 42 46 58 17 17 31 36 31 43 0 22 -29 27
-49 9 -18 -16 -20 -15 -44 26 -14 24 -26 50 -27 58 -4 23 11 80 21 80 5 0 9 8
10 18 1 9 5 1 10 -18 5 -19 6 -54 3 -77 -6 -49 3 -53 42 -19 l28 23 -21 87
c-13 54 -18 98 -14 114 l7 27 17 -25 c9 -14 26 -47 38 -74 23 -52 30 -50 44
11 5 24 0 47 -19 90 -18 40 -26 75 -25 113 0 30 0 64 0 75 0 11 0 41 1 67 0
62 -34 120 -107 184 -30 27 -55 52 -55 57 0 4 4 6 9 3 20 -13 16 20 -4 36 -12
10 -39 50 -59 91 -20 42 -49 83 -66 96 -22 16 -29 28 -25 41 3 11 -1 33 -10
50 l-16 31 -52 -55 c-29 -29 -59 -56 -68 -59 -9 -3 -33 5 -54 16 -40 23 -57
47 -33 47 8 0 29 16 48 35 19 19 38 35 43 35 5 0 22 9 38 20 21 15 26 26 21
40 -11 30 -111 146 -156 181 -23 18 -54 48 -69 66 -43 50 -117 99 -127 83 -6
-10 -26 5 -72 52 -34 36 -76 74 -92 84 l-29 18 17 -32 c9 -18 14 -37 11 -42
-3 -4 -43 -29 -90 -55 -47 -25 -85 -50 -85 -55 0 -4 12 -19 28 -32 37 -31 142
-162 178 -221 16 -26 37 -61 47 -78 l19 -29 -24 0 c-29 0 -136 87 -137 110 -1
16 -134 183 -151 188 -6 2 -38 -22 -71 -53 -34 -31 -72 -63 -85 -72 -13 -8
-24 -24 -24 -34 0 -13 -7 -19 -23 -19 -37 0 -66 28 -101 98 -19 37 -55 95 -80
130 -26 35 -44 67 -41 71 2 5 35 27 72 49 76 45 101 75 82 98 -16 20 -21 18
-70 -25 -66 -57 -119 -91 -145 -91 -24 0 -54 33 -54 60 0 8 34 36 75 62 76 48
92 71 54 83 -23 8 -59 40 -59 53 0 10 -43 52 -54 52 -4 0 11 -23 33 -52 45
-56 47 -71 11 -76 -23 -4 -45 14 -102 86 -35 43 -35 50 -1 58 27 7 27 7 4 15
-28 11 -81 -10 -127 -51 -19 -16 -38 -30 -43 -30 -5 0 -27 25 -50 55 -34 45
-47 55 -71 55 -17 0 -30 -5 -30 -12 0 -6 42 -51 93 -98 51 -48 106 -106 121
-129 16 -23 57 -64 92 -91 58 -45 178 -179 218 -243 10 -16 34 -46 53 -68 20
-22 34 -41 32 -44 -10 -10 -82 15 -115 40 -19 14 -60 60 -90 100 l-56 74 -31
-35 c-37 -43 -129 -106 -176 -122 -44 -16 -148 -15 -157 0 -4 7 6 23 25 39 47
39 173 114 223 133 l43 17 -63 64 c-35 36 -70 65 -77 65 -26 0 -26 -21 0 -51
29 -36 28 -49 -5 -66 -20 -10 -29 -7 -69 24 -59 44 -66 58 -44 78 107 91 100
81 79 104 l-19 21 -46 -41 c-25 -22 -72 -60 -105 -85 -56 -43 -57 -44 -28 -44
18 0 51 -15 83 -36 89 -60 88 -58 45 -99 -21 -19 -43 -35 -49 -35 -7 0 -23
-16 -37 -35 -14 -19 -30 -35 -36 -35 -17 0 -75 52 -90 82 -8 15 -25 34 -37 43
-21 14 -26 11 -105 -63 -45 -43 -82 -82 -82 -86 0 -5 11 -5 25 -2 14 4 25 2
25 -4 0 -5 -24 -10 -52 -10 -29 0 -63 -3 -75 -6 -20 -6 -23 -2 -23 22 0 22 16
43 73 96 39 37 87 75 105 85 17 10 32 20 32 24 0 7 -97 102 -124 123 -19 13
-19 15 11 45 17 17 36 31 41 31 6 0 21 -14 34 -31 60 -82 280 -280 295 -266
17 18 -99 147 -133 147 -44 0 -81 63 -50 86 10 7 67 40 127 74 60 34 109 64
109 67 0 3 -12 20 -27 38 -16 17 -40 53 -55 78 -15 26 -32 47 -37 47 -6 0 -21
-12 -35 -27z m443 -146 c54 -52 59 -60 51 -82 -5 -14 -13 -25 -18 -25 -5 0
-42 31 -83 70 -71 67 -73 70 -54 85 27 22 35 18 104 -48z m-1000 -290 c15 -24
13 -27 -108 -153 -121 -128 -169 -163 -223 -164 l-27 0 19 33 c11 18 68 84
127 146 60 63 111 119 115 126 5 9 -7 22 -37 39 -41 24 -75 60 -75 78 0 5 9
17 21 29 l20 20 77 -64 c42 -35 84 -76 91 -90z m280 91 c47 -50 50 -63 17 -80
-42 -23 -176 -152 -176 -170 0 -10 9 -27 20 -38 12 -12 15 -22 9 -26 -14 -8
-101 5 -117 18 -9 8 -11 7 -7 -4 8 -20 -41 -38 -99 -38 -23 0 -48 -6 -56 -12
-7 -7 1 6 20 30 18 24 44 51 59 60 14 9 34 27 44 39 9 12 30 24 46 28 19 4 52
33 97 82 55 61 68 82 66 105 -5 62 22 64 77 6z m-439 -82 c-1 -14 -140 -186
-162 -200 -13 -8 -22 -6 -37 8 -26 24 -27 52 -1 66 11 6 36 35 55 65 19 30 50
68 67 84 l33 30 23 -21 c12 -12 22 -26 22 -32z m2053 1 c31 -36 38 -50 29 -59
-9 -9 -18 -8 -37 2 -32 17 -40 9 -26 -30 8 -23 8 -38 0 -53 -11 -20 -12 -20
-30 4 -11 13 -33 44 -49 69 l-31 44 38 37 c21 20 44 36 52 35 8 0 32 -22 54
-49z m162 -226 c28 -44 54 -81 59 -81 16 0 46 32 46 51 0 10 -8 20 -17 24 -19
6 -103 117 -103 135 0 6 8 5 20 -2 15 -10 22 -10 31 -1 15 15 52 -37 70 -97 7
-22 17 -40 23 -40 13 0 56 -61 56 -78 0 -7 -6 -12 -14 -12 -8 0 -37 -16 -66
-35 -63 -42 -77 -43 -87 -8 -10 43 -93 173 -109 173 -8 0 -14 -7 -14 -15 0
-21 59 -133 93 -177 21 -28 25 -38 13 -38 -37 0 -66 26 -106 98 -24 42 -58 92
-77 112 l-32 37 27 26 c16 15 33 27 38 27 6 0 19 9 30 21 l19 21 25 -31 c14
-16 48 -66 75 -110z m-1555 87 l52 -43 -39 -11 c-47 -14 -91 1 -113 38 -12 22
-12 29 -1 42 21 25 44 19 101 -26z m598 13 c15 -15 42 -45 61 -66 l34 -38 -39
7 c-62 12 -134 76 -121 110 10 24 35 19 65 -13z m546 -75 c25 -33 46 -63 46
-68 0 -4 6 -8 13 -8 19 0 73 -48 64 -57 -4 -4 -42 4 -85 16 -42 13 -102 29
-132 36 -30 7 -50 14 -45 15 6 1 13 2 17 1 4 0 5 5 2 13 -3 7 2 19 11 26 8 7
15 20 15 29 0 21 29 63 40 59 5 -2 29 -30 54 -62z m-610 19 l25 -25 -54 0
c-80 0 -79 17 2 49 1 1 13 -10 27 -24z m-634 -5 c0 -5 -12 -10 -27 -10 -22 0
-25 2 -13 10 20 13 40 13 40 0z m-788 -37 c60 -70 44 -101 -70 -136 -47 -15
-87 -25 -89 -23 -2 2 12 24 31 49 19 25 47 64 61 87 28 44 44 49 67 23z m-557
-283 c0 -16 -4 -30 -8 -30 -5 0 -5 -4 -2 -10 3 -5 1 -10 -4 -10 -12 0 -15 39
-5 64 10 25 19 19 19 -14z m1369 -130 c-7 -35 -6 -35 32 -15 38 19 79 19 99
-1 29 -29 12 -39 -76 -44 -59 -4 -98 -12 -132 -28 -27 -13 -64 -26 -84 -29
l-37 -6 21 29 c36 49 98 104 129 114 50 14 54 13 48 -20z m265 -1 c37 -28 45
-30 68 -20 14 6 27 20 30 31 6 21 27 25 82 14 l31 -6 -54 -54 c-30 -30 -59
-54 -65 -54 -6 0 -11 -5 -11 -10 0 -17 -78 28 -126 72 -24 22 -44 44 -44 49 0
20 49 7 89 -22z m-425 -11 c-4 -7 -33 -42 -63 -77 -31 -35 -55 -68 -53 -73 6
-20 -26 -54 -77 -82 -29 -15 -54 -26 -57 -24 -6 7 43 94 80 143 34 45 103 109
126 118 28 10 52 8 44 -5z m764 -67 c2 -42 -2 -52 -20 -65 -35 -25 -63 -19
-92 18 -14 19 -26 39 -26 44 0 5 27 15 60 21 42 8 60 17 60 27 0 8 4 13 8 10
4 -2 9 -27 10 -55z m-945 29 c-3 -11 -9 -23 -14 -26 -5 -3 -9 -14 -9 -25 0
-26 -70 -129 -112 -164 -18 -15 -41 -41 -50 -56 -20 -32 -51 -37 -82 -14 -24
18 -41 9 -21 -11 22 -23 18 -41 -12 -61 -16 -10 -32 -23 -38 -29 -20 -22 -86
-67 -91 -62 -11 11 9 57 37 86 16 16 45 53 65 83 21 30 41 56 46 57 4 2 8 13
8 25 1 37 54 122 78 125 12 2 22 1 22 -3 0 -13 -40 -84 -64 -112 -27 -32 -22
-58 10 -51 13 2 18 10 16 27 -2 12 3 28 11 34 8 7 45 50 83 97 76 94 82 100
106 100 11 0 15 -6 11 -20z m-123 -8 c0 -14 -23 -32 -42 -32 -23 0 -23 16 0
29 21 13 42 14 42 3z m1295 -22 c-8 -16 -15 -33 -15 -39 0 -5 27 -35 61 -68
33 -32 68 -71 76 -88 19 -37 30 -45 66 -45 40 0 34 21 -26 87 -82 89 -94 123
-43 123 15 0 36 -15 60 -42 20 -24 59 -68 86 -98 84 -91 151 -183 146 -197 -6
-15 10 -18 18 -4 3 5 31 25 61 46 58 38 66 54 39 76 -18 15 -94 129 -94 141 0
15 37 8 63 -13 15 -11 36 -41 47 -66 11 -25 23 -43 27 -40 3 4 17 0 30 -8 22
-15 23 -14 23 9 0 14 5 28 11 32 6 3 8 15 6 26 -4 15 -2 17 7 9 8 -7 44 -9 92
-6 l78 4 -28 -18 c-16 -11 -44 -19 -63 -19 -19 0 -37 -3 -40 -6 -3 -3 13 -34
35 -68 22 -35 53 -90 68 -122 18 -39 39 -65 59 -77 30 -18 55 -55 55 -81 0 -7
18 -39 40 -72 21 -34 46 -79 55 -100 18 -42 13 -86 -9 -86 -18 0 -105 130
-112 169 -7 35 -15 38 -50 15 -25 -17 -25 -17 -5 -38 20 -22 123 -189 133
-218 8 -19 -25 -53 -41 -43 -18 10 -91 123 -112 171 -20 45 -36 53 -57 32 -24
-24 -79 53 -60 86 8 15 5 23 -16 40 -31 25 -116 145 -116 163 0 19 -7 17 -62
-17 -56 -34 -89 -33 -115 6 -14 23 -14 26 2 44 16 17 16 20 2 20 -8 0 -38 26
-67 58 l-51 57 -19 -25 c-19 -25 -19 -25 7 -52 15 -16 24 -28 20 -28 -19 0
-187 94 -187 104 0 7 -20 27 -45 46 -24 18 -56 50 -69 70 -14 21 -35 49 -48
63 -13 14 -32 42 -42 62 -25 47 -15 55 72 55 l63 0 -16 -30z m-1425 -15 c0
-55 -76 -180 -188 -309 -56 -65 -59 -71 -46 -91 13 -19 12 -24 -6 -40 -41 -37
-137 19 -128 74 2 11 0 20 -4 21 -27 1 -38 -8 -78 -67 -25 -36 -69 -90 -98
-120 -56 -58 -57 -65 -12 -100 20 -15 23 -12 54 51 15 30 40 66 56 80 17 14
28 31 25 39 -3 7 3 24 13 37 22 27 43 23 67 -14 l17 -26 -135 -134 -135 -135
-44 48 c-23 27 -60 70 -81 95 -21 25 -42 46 -47 46 -5 0 -19 -19 -31 -42 -33
-65 -99 -148 -118 -148 -23 0 -41 20 -41 45 0 12 24 57 53 101 29 43 58 98 65
120 18 63 35 72 76 40 39 -29 56 -33 56 -11 0 34 193 283 226 291 14 4 27 4
29 2 13 -13 -120 -238 -179 -305 -11 -13 -30 -23 -43 -23 -32 0 -29 -13 11
-43 l33 -26 86 137 c47 75 101 156 119 180 18 24 43 58 56 75 13 18 30 36 38
40 18 10 114 -40 114 -60 0 -16 -43 -17 -71 -3 -14 8 -19 7 -19 -2 0 -7 -11
-34 -25 -60 -27 -51 -31 -73 -15 -83 17 -11 44 3 61 31 18 30 140 172 215 251
52 54 74 65 74 38z m1700 -12 c56 -39 116 -102 161 -172 52 -78 58 -98 34
-107 -24 -9 -58 19 -132 108 -74 89 -98 124 -113 163 -8 21 -7 25 8 25 10 0
29 -8 42 -17z m-1884 -54 c22 -44 5 -58 -35 -28 -17 12 -31 27 -31 31 0 7 25
21 47 27 1 1 10 -13 19 -30z m1229 11 c3 -5 2 -10 -4 -10 -5 0 -13 5 -16 10
-3 6 -2 10 4 10 5 0 13 -4 16 -10z m283 -12 c22 -22 12 -47 -28 -74 -31 -21
-47 -25 -74 -20 -62 12 -64 30 -4 70 55 37 86 44 106 24z m55 -124 c21 -20 36
-38 33 -41 -3 -3 -30 7 -61 22 -43 22 -52 31 -44 42 17 20 30 16 72 -23z
m-406 -20 c-3 -3 -12 -4 -19 -1 -8 3 -5 6 6 6 11 1 17 -2 13 -5z m1306 -35
c10 -13 17 -38 17 -65 0 -24 4 -44 9 -44 5 0 27 20 50 45 23 25 48 45 56 45
22 0 65 -52 65 -78 0 -35 112 -168 131 -156 22 14 5 -14 -33 -53 l-42 -42 -43
91 c-24 50 -46 102 -49 115 -6 22 -7 22 -38 6 -17 -8 -32 -17 -34 -18 -3 -3
44 -89 98 -178 17 -28 21 -46 16 -72 -4 -20 -11 -33 -16 -30 -6 3 -33 43 -61
88 -28 45 -64 100 -80 122 -15 22 -36 60 -46 85 -9 25 -30 63 -45 85 -15 22
-30 52 -34 67 -6 27 -5 27 28 18 18 -5 41 -19 51 -31z m-1315 3 c6 -2 12 -8
12 -14 0 -5 -5 -6 -12 -2 -8 5 -9 0 -6 -14 9 -31 -5 -35 -54 -15 -74 29 -74
55 0 52 26 -1 53 -4 60 -7z m-1672 -92 c-14 -22 -31 -40 -36 -40 -6 0 -10 20
-10 45 0 38 4 46 28 59 25 13 28 13 36 -5 7 -14 2 -29 -18 -59z m925 51 c7 11
11 10 22 -5 8 -11 21 -17 29 -14 9 4 26 -11 48 -43 24 -35 36 -46 42 -37 6 10
8 10 9 -2 1 -8 1 -19 0 -23 -1 -5 2 -6 7 -3 12 7 94 -78 85 -89 -5 -4 -2 -5 6
0 7 4 16 3 20 -2 22 -33 196 -114 287 -134 126 -28 328 -12 414 32 39 19 40
19 -60 43 -71 16 -207 71 -154 61 64 -12 172 -6 259 14 117 27 190 47 207 56
10 6 11 5 1 -6 -7 -7 -13 -30 -13 -50 0 -42 35 -79 74 -79 12 0 52 -9 90 -20
l68 -19 30 30 30 30 -6 -26 c-4 -17 -3 -24 3 -20 11 6 64 -41 73 -65 3 -9 27
-26 52 -39 25 -14 51 -30 57 -38 6 -7 15 -13 20 -13 5 0 51 -42 103 -93 l95
-93 12 -69 c7 -42 10 -124 7 -214 -3 -80 -3 -152 -1 -158 6 -16 31 -4 96 48
36 28 54 36 74 33 15 -3 39 -6 55 -7 l27 -2 -43 -45 c-60 -63 -126 -150 -126
-166 0 -19 19 -18 42 3 26 23 23 -2 -3 -28 -33 -33 -8 -49 87 -55 107 -7 149
-17 139 -34 -3 -5 -1 -11 5 -15 34 -21 -10 -85 -79 -117 -109 -50 -192 -64
-279 -50 l-52 9 -55 -78 c-156 -223 -478 -384 -895 -449 -91 -14 -436 -14
-579 0 -316 30 -625 133 -800 265 -79 60 -183 180 -224 260 -31 59 -32 59 -35
28 -3 -29 -7 -32 -46 -38 -97 -15 -260 49 -335 130 -50 54 -51 71 -8 80 17 4
35 12 39 18 3 6 39 9 82 8 50 -1 83 2 95 11 18 13 18 15 1 51 l-18 37 44 -26
c52 -31 66 -25 38 14 -92 126 -108 166 -74 177 12 4 17 11 13 18 -7 12 12 1
87 -50 19 -12 45 -23 58 -23 21 0 24 4 18 28 -23 107 -17 450 8 475 7 7 11 18
8 25 -2 6 4 12 12 12 9 0 19 7 22 15 4 8 12 15 20 15 8 0 14 5 14 10 0 6 6 10
13 10 6 1 28 21 46 45 19 24 38 42 41 40 4 -2 13 8 20 23 13 25 74 91 85 92 3
0 12 0 21 0 11 0 14 6 9 23 -5 19 -5 20 5 4 6 -9 16 -15 21 -12 5 4 7 11 4 16
-4 5 0 9 7 9 8 0 21 9 31 20 10 12 23 18 29 14 7 -4 8 -3 4 5 -4 6 -12 9 -17
6 -5 -4 -4 5 2 19 13 28 31 26 23 -2 -2 -9 2 -3 10 13 8 17 18 30 23 30 4 0 7
3 6 7 -2 4 5 4 14 1 11 -5 14 -3 8 6 -6 10 -2 11 15 6 20 -6 22 -4 17 14 -3
14 -1 19 6 14 15 -9 47 -11 42 -3 -2 4 2 16 10 26 13 18 14 18 9 -6 -4 -18 -3
-21 4 -11 6 8 15 10 23 5 12 -6 12 -5 1 8 -10 13 -7 19 22 42 24 18 36 22 39
13 3 -7 6 -5 6 6 1 20 17 23 24 5 3 -7 6 -4 7 7 1 13 3 15 7 6 5 -11 7 -11 14
0z m389 -78 c45 -42 63 -73 43 -73 -14 0 -77 41 -105 68 -25 23 -26 26 -10 38
9 7 18 14 20 14 1 0 25 -21 52 -47z m-1460 12 c0 -3 -17 -38 -37 -78 l-36 -72
-13 44 c-12 38 -11 45 3 60 32 33 83 61 83 46z m2558 -122 c0 -10 2 -27 6 -38
5 -13 2 -12 -7 4 -8 14 -13 31 -10 38 7 18 12 16 11 -4z m276 -35 c5 -9 7 -20
3 -24 -10 -11 -67 17 -67 33 0 20 50 13 64 -9z m-2654 -295 c0 -10 -22 -43
-74 -112 -39 -52 -55 -55 -56 -8 0 19 40 78 40 61 1 -5 7 2 15 16 8 14 14 21
15 15 0 -5 7 1 16 13 14 21 44 31 44 15z m-141 -200 c10 -35 8 -41 -44 -117
-75 -113 -109 -151 -124 -141 -25 15 -3 71 70 184 40 61 76 111 80 111 5 0 13
-17 18 -37z m3535 -195 c27 -42 67 -160 60 -180 -5 -18 -7 -18 -24 -3 -30 27
-83 153 -76 180 8 31 21 32 40 3z m-3760 -500 c-3 -4 0 -8 6 -8 7 0 10 -7 6
-15 -3 -8 -1 -15 4 -15 6 0 10 -9 10 -20 0 -12 7 -34 16 -51 15 -29 11 -69 -6
-69 -5 0 -24 19 -44 42 -38 44 -55 100 -37 122 6 7 8 16 4 19 -3 4 5 6 20 5
14 -1 23 -6 21 -10z m3692 -15 c-10 -10 -19 5 -10 18 6 11 8 11 12 0 2 -7 1
-15 -2 -18z m-2981 -400 c-17 -14 -40 -35 -52 -46 -31 -27 -29 -9 2 27 14 16
25 26 25 22 0 -4 10 0 22 8 35 25 36 19 3 -11z m-166 -193 c-7 -5 -18 -5 -25
0 -6 6 -13 7 -17 4 -9 -9 -40 44 -32 56 3 5 -1 10 -10 10 -9 0 -30 10 -48 22
-18 13 -34 24 -36 25 -2 2 3 11 13 22 16 18 19 16 93 -56 56 -56 72 -77 62
-83z m-360 88 c-9 -16 -14 -19 -17 -9 -2 7 2 17 9 22 20 13 21 11 8 -13z
m3383 -66 c6 -22 -21 -94 -32 -87 -11 7 -23 101 -15 115 9 14 41 -4 47 -28z
m-2095 -67 c70 -24 164 -54 208 -65 111 -29 115 -33 77 -65 -29 -24 -66 -79
-121 -178 -25 -44 -25 -47 -8 -47 8 0 20 12 28 26 l14 26 6 -23 c4 -13 7 -43
8 -66 l1 -43 -215 0 -215 0 0 104 c0 104 16 206 32 206 4 0 8 -4 8 -9 0 -4 27
-38 60 -74 57 -62 184 -157 209 -157 22 0 9 16 -41 50 -71 48 -163 134 -199
187 -25 35 -29 50 -24 76 8 37 32 97 39 97 2 0 62 -20 133 -45z m-1190 -5 c12
-19 30 -46 40 -60 10 -14 17 -31 15 -37 -2 -7 4 -13 13 -13 9 0 15 -5 13 -12
-6 -18 -28 -22 -28 -5 0 9 -4 17 -9 19 -23 8 -110 119 -104 134 9 24 35 12 60
-26z m2081 -30 c7 -39 12 -75 12 -81 0 -23 -120 -135 -204 -191 -106 -69 -97
-73 -180 67 -31 52 -68 103 -83 114 -14 12 -24 23 -21 26 2 3 70 23 149 45 79
22 176 51 214 65 101 35 99 36 113 -45z m-1697 -9 c-6 -10 -8 -20 -6 -23 3 -2
-22 -30 -54 -62 -52 -52 -61 -57 -80 -47 -11 7 -21 15 -21 19 0 4 25 34 55 65
41 44 59 57 74 52 11 -3 22 -1 26 5 11 18 16 11 6 -9z m209 -154 c-113 -57
-247 -134 -299 -170 -51 -37 -98 -67 -103 -67 -5 0 -7 -4 -3 -10 3 -6 15 -6
30 0 13 5 52 7 87 5 35 -3 468 -7 963 -10 1023 -6 1081 -7 1113 -24 47 -25 61
-93 87 -446 8 -110 23 -306 35 -435 20 -243 25 -376 10 -330 -4 14 -5 -16 -2
-66 l5 -92 -37 -47 c-20 -26 -36 -52 -36 -58 0 -15 134 133 143 159 10 29 32
30 74 4 44 -26 81 -86 95 -151 10 -48 9 -63 -11 -127 -35 -116 -113 -186 -221
-199 -63 -7 -92 1 -135 38 -50 44 -49 90 5 157 21 28 44 53 50 57 5 3 10 14
10 23 0 13 -3 12 -15 -5 -9 -13 -32 -27 -53 -32 -21 -5 -472 -9 -1070 -10
-936 -1 -1036 0 -1064 15 -45 23 -83 33 -97 25 -7 -5 4 -13 28 -21 49 -16 109
-64 122 -98 13 -33 -4 -81 -40 -116 -40 -39 -120 -46 -185 -18 -65 29 -133 88
-159 136 -30 59 -29 164 2 229 20 42 113 137 133 137 5 0 8 -18 8 -40 0 -36 6
-47 55 -95 30 -30 55 -59 55 -65 0 -5 4 -10 10 -10 15 0 -1 32 -35 71 -34 38
-47 95 -61 269 -3 41 -14 125 -25 185 -10 61 -26 171 -34 245 -9 74 -24 196
-34 270 -11 74 -25 190 -32 258 -12 118 -11 124 8 150 11 15 31 32 44 39 64
30 78 35 88 29 6 -4 11 -3 11 2 0 14 137 115 225 165 183 104 351 171 440 176
11 0 -72 -46 -185 -102z m1857 62 c23 -11 47 -19 53 -19 14 0 139 -63 215
-108 208 -124 567 -442 743 -657 31 -38 80 -96 108 -127 56 -61 75 -102 64
-133 -6 -16 -8 -13 -13 15 -6 27 -28 56 -95 121 -77 77 -93 88 -140 98 -96 20
-206 14 -337 -20 -101 -26 -130 -38 -185 -77 -86 -61 -222 -192 -278 -267 -36
-48 -43 -54 -38 -32 10 41 85 152 153 224 148 157 282 218 478 218 61 0 139
-4 175 -9 l65 -8 -26 27 c-22 22 -39 28 -105 36 -233 28 -438 -48 -607 -226
-66 -69 -131 -160 -138 -193 -6 -26 -7 -26 -8 6 -2 49 72 184 132 243 66 65
175 136 267 173 73 30 79 31 238 31 l163 0 -43 40 c-24 22 -93 83 -153 135
-321 281 -398 335 -660 472 -117 61 -135 84 -28 37z m-808 -41 c41 -72 68
-226 43 -242 -5 -3 -64 -6 -133 -7 l-124 -1 0 95 c0 90 2 98 31 139 25 36 35
43 64 43 19 0 44 5 54 12 27 15 37 9 65 -39z m476 -5 c4 -21 11 -54 16 -73 5
-19 9 -68 9 -108 l0 -73 -211 2 c-235 2 -226 -1 -215 74 l7 45 35 -35 c35 -35
35 -35 72 -20 84 35 243 161 257 205 10 31 23 24 30 -17z m795 -10 c0 -17 -46
-53 -67 -53 -29 0 -29 7 -1 37 20 21 68 33 68 16z m-2948 -73 c18 -19 28 -36
24 -46 -3 -8 -2 -12 4 -9 11 7 14 -28 3 -38 -8 -8 -53 40 -53 57 0 6 -5 17
-12 24 -15 15 -19 42 -6 42 5 0 23 -14 40 -30z m3349 -163 c19 -15 21 -47 2
-47 -7 0 -23 10 -34 21 -17 17 -19 23 -8 30 18 11 21 11 40 -4z m-3404 -59
c-3 -8 -6 -5 -6 6 -1 11 2 17 5 13 3 -3 4 -12 1 -19z m3 -56 c0 -2 -4 0 -10 3
-5 3 -10 1 -10 -5 0 -6 -4 -8 -10 -5 -5 3 -10 15 -10 25 0 19 1 19 20 3 11
-10 20 -19 20 -21z m-141 -37 c56 -59 57 -69 12 -109 -26 -23 -41 -13 -70 49
-28 59 -28 115 -1 115 4 0 30 -25 59 -55z m3651 31 c0 -2 -8 -10 -17 -17 -16
-13 -17 -12 -4 4 13 16 21 21 21 13z m-84 -72 c-4 -10 10 -65 21 -83 1 -2 29
18 63 43 34 26 65 44 70 41 15 -9 12 -73 -5 -140 -24 -91 -30 -93 -84 -33 -25
28 -75 82 -110 120 -63 66 -64 68 -46 88 18 20 18 20 57 -2 21 -12 36 -28 34
-34z m-3654 -82 l38 -47 -50 -50 c-34 -34 -53 -46 -60 -39 -6 6 -19 40 -29 77
-19 69 -15 88 19 100 32 12 46 4 82 -41z m3921 -40 l27 -28 -7 -138 -6 -138
-45 45 -44 44 10 54 c6 30 14 84 17 122 4 37 10 67 14 67 4 0 19 -13 34 -28z
m338 -339 l23 -57 -25 -45 c-27 -48 -53 -70 -66 -57 -4 4 -8 50 -8 102 0 82 3
97 19 109 25 19 30 15 57 -52z m-5107 12 c-4 -8 -10 -12 -15 -9 -11 6 -2 24
11 24 5 0 7 -7 4 -15z m4467 -62 c5 -15 24 -77 41 -137 36 -128 43 -274 19
-386 -26 -121 -131 -297 -243 -408 -138 -138 -256 -222 -311 -222 -32 0 -80
38 -72 58 5 13 3 13 -12 2 -10 -7 -2 3 17 22 19 19 37 31 39 26 2 -6 8 -4 13
3 7 11 11 11 15 1 2 -6 9 -10 14 -6 5 3 9 -13 9 -36 l0 -41 31 17 32 16 -7 83
c-3 46 -14 110 -24 142 -21 67 -85 167 -133 207 -36 31 -111 70 -151 80 -26 6
-28 10 -28 57 0 63 13 87 56 105 46 19 140 3 203 -34 57 -33 153 -127 176
-171 35 -69 56 -148 62 -236 7 -98 21 -92 22 8 1 66 -28 174 -62 230 -35 58
-141 161 -198 191 -36 20 -70 29 -124 33 l-74 6 17 30 c25 44 167 192 231 242
95 72 176 107 305 130 111 20 125 19 137 -12z m323 -422 c-23 -25 -23 -25 -45
-6 -33 31 -37 46 -29 113 6 48 17 76 44 117 20 30 37 60 38 67 1 7 4 -50 8
-127 7 -137 7 -140 -16 -164z m121 254 c47 -35 49 -57 8 -105 -19 -22 -38 -38
-42 -35 -10 6 -15 165 -5 165 4 0 22 -11 39 -25z m-4114 -157 l37 -38 -49 -36
c-48 -35 -50 -36 -75 -19 -33 22 -39 38 -21 67 8 13 18 46 22 73 l7 50 22 -30
c11 -16 37 -47 57 -67z m3852 -58 c-3 -11 2 -31 11 -45 9 -14 20 -45 25 -68 7
-38 5 -48 -16 -73 l-23 -29 0 28 c0 15 -4 27 -9 27 -10 0 -22 46 -28 110 -3
34 0 48 13 57 25 18 33 16 27 -7z m-3809 -155 l8 -40 -26 24 c-29 27 -32 42
-15 74 12 21 12 21 19 2 4 -11 10 -38 14 -60z m3630 -251 c3 -8 2 -12 -4 -9
-6 3 -10 1 -10 -6 0 -7 -2 -10 -5 -7 -5 5 4 38 10 38 2 0 6 -7 9 -16z m-2794
-159 c0 -24 -2 -25 -75 -25 -78 0 -89 -7 -62 -43 10 -14 23 -16 92 -9 l80 7 3
43 3 42 738 0 739 0 -6 -45 -5 -46 79 3 c73 3 79 5 82 26 3 21 0 22 -57 22
-50 0 -62 3 -71 20 -10 20 -8 20 144 20 l155 0 -15 -35 c-7 -19 -14 -43 -14
-54 0 -20 -7 -20 -982 -23 -541 -2 -988 -2 -995 0 -6 2 -13 20 -15 40 -3 20
-8 45 -12 54 -7 15 1 17 66 21 40 1 85 4 101 5 23 2 27 -2 27 -23z m1172 -342
c1 -115 2 -289 3 -388 l0 -180 -144 2 c-103 2 -147 6 -154 15 -5 8 -6 147 -3
323 3 171 6 338 6 373 l0 62 145 0 145 0 2 -207z m858 -484 c0 -20 -15 -26
-25 -9 -9 15 3 43 15 35 5 -3 10 -15 10 -26z"/>
<path d="M4945 6430 c-15 -16 -14 -20 8 -42 39 -39 100 -156 94 -180 -5 -16 5
-10 39 23 42 41 43 44 26 59 -23 19 -64 75 -85 116 -20 38 -59 49 -82 24z"/>
<path d="M2908 6352 c-79 -37 -106 -100 -65 -148 l25 -29 69 18 c135 36 179
68 165 120 -7 27 -48 50 -101 56 -35 5 -57 1 -93 -17z"/>
<path d="M2841 5994 c-100 -36 -176 -103 -219 -194 -23 -48 -27 -68 -26 -150
0 -78 4 -102 22 -137 12 -23 25 -44 29 -46 5 -3 8 50 8 116 0 103 3 129 21
168 43 93 130 163 215 175 56 8 144 -10 184 -36 l30 -20 -67 7 c-61 5 -73 3
-123 -23 -31 -15 -59 -32 -62 -37 -3 -6 -1 -7 5 -3 6 4 27 0 47 -8 64 -27 66
-93 3 -130 -35 -22 -82 -16 -114 14 -18 18 -23 19 -33 6 -21 -26 -25 -126 -7
-188 17 -59 78 -139 125 -162 93 -46 198 -39 288 20 169 110 172 392 7 543
-91 83 -237 120 -333 85z"/>
<path d="M4380 5990 c-240 -88 -333 -360 -193 -562 56 -82 175 -130 268 -109
200 45 286 272 167 442 -72 103 -198 147 -290 100 -55 -28 -61 -27 -27 9 39
41 107 65 180 64 179 -2 309 -192 278 -408 -11 -80 4 -90 36 -23 77 161 -12
408 -172 477 -74 33 -175 37 -247 10z m-22 -206 c32 -22 30 -76 -4 -103 -15
-12 -39 -21 -54 -21 -36 0 -80 35 -80 64 0 13 11 35 25 50 28 30 78 35 113 10z"/>
<path d="M3866 5265 c-8 -19 -30 -44 -48 -55 -97 -60 -175 -50 -250 31 -50 55
-68 56 -68 5 0 -42 30 -80 83 -109 62 -32 196 -32 249 1 71 44 110 129 69 151
-18 10 -22 8 -35 -24z"/>
<path d="M4552 3830 c0 -19 3 -60 8 -90 l7 -55 1 45 c0 25 -3 65 -7 90 -8 41
-9 42 -9 10z"/>
<path d="M3582 3523 c-41 -8 -99 -74 -107 -121 -16 -98 38 -192 120 -208 64
-12 137 20 128 55 -5 19 -11 20 -64 14 -55 -5 -59 -4 -88 25 -55 55 -37 149
33 172 36 11 86 0 86 -20 0 -20 18 -1 28 30 9 25 8 31 -6 39 -22 12 -100 20
-130 14z"/>
<path d="M2360 3376 c0 -79 3 -151 6 -160 4 -10 18 -16 35 -16 l30 0 -3 158
-3 157 -32 3 -33 3 0 -145z"/>
<path d="M3344 3468 c4 -16 -1 -28 -15 -39 -24 -18 -19 -59 7 -59 11 0 14 -16
14 -69 0 -63 2 -71 26 -90 37 -29 80 -28 88 2 9 34 8 35 -21 39 -27 3 -28 6
-31 66 -3 61 -2 62 23 62 20 0 25 5 25 25 0 20 -5 25 -25 25 -21 0 -25 5 -25
30 0 28 -3 30 -36 30 -33 0 -36 -2 -30 -22z"/>
<path d="M2468 3433 c-2 -5 -2 -59 0 -120 l3 -113 30 0 29 0 0 74 c0 79 13
106 51 106 26 0 39 -37 39 -116 l0 -64 33 0 33 0 -3 68 c-5 100 -12 131 -34
153 -22 22 -77 25 -104 5 -16 -11 -21 -11 -33 0 -15 15 -39 19 -44 7z"/>
<path d="M2702 3402 c3 -21 19 -67 36 -103 16 -35 32 -72 36 -81 3 -12 16 -18
34 -18 27 0 30 5 65 99 45 121 46 131 9 131 -25 0 -29 -6 -46 -62 -11 -35 -22
-66 -26 -70 -3 -4 -16 20 -29 55 -25 63 -44 87 -69 87 -11 0 -13 -9 -10 -38z"/>
<path d="M2968 3420 c-14 -11 -33 -37 -41 -59 -23 -56 -12 -104 31 -142 33
-29 40 -31 88 -26 66 7 72 11 67 40 -4 22 -9 24 -61 23 -51 -1 -57 1 -57 19 0
17 8 21 65 25 43 3 65 9 64 18 -1 6 -2 23 -2 36 -1 14 -14 38 -28 55 -31 38
-87 43 -126 11z m92 -51 c7 -11 9 -23 7 -26 -8 -7 -75 -8 -83 -1 -12 13 17 48
41 48 14 0 29 -9 35 -21z"/>
<path d="M3170 3414 c-25 -21 -30 -33 -28 -58 2 -26 11 -35 51 -56 29 -15 46
-31 45 -40 -4 -19 -45 -25 -63 -10 -18 15 -35 5 -35 -21 0 -23 35 -39 85 -39
25 0 40 8 59 31 42 49 31 86 -35 120 -48 24 -46 45 5 42 32 -2 36 0 36 21 0
44 -72 50 -120 10z"/>
<path d="M3794 3422 c-49 -24 -69 -64 -61 -125 9 -67 80 -119 141 -103 69 17
109 91 87 159 -25 74 -93 103 -167 69z m95 -68 c25 -32 26 -52 5 -82 -12 -17
-24 -22 -47 -20 -26 2 -34 10 -45 40 -13 33 -13 40 2 63 22 33 59 33 85 -1z"/>
<path d="M4076 3419 c-21 -17 -26 -18 -26 -5 0 11 -9 16 -27 16 l-28 0 -3
-161 -4 -160 39 3 38 3 -3 115 c-4 108 -3 116 18 135 18 16 24 17 41 7 11 -7
24 -10 29 -7 17 11 11 54 -9 65 -27 14 -35 13 -65 -11z"/>
<path d="M4213 3432 c-23 -3 -23 -5 -23 -166 l0 -162 36 4 36 4 -4 54 c-4 48
-3 52 13 43 67 -36 150 27 149 113 -1 42 -19 74 -56 99 -34 22 -63 24 -89 5
-15 -11 -22 -11 -30 -2 -5 7 -20 10 -32 8z m134 -83 c18 -36 0 -87 -33 -95
-53 -13 -86 65 -47 108 24 26 65 20 80 -13z"/>
<path d="M4612 3145 c0 -16 2 -22 5 -12 2 9 2 23 0 30 -3 6 -5 -1 -5 -18z"/>
<path d="M4621 3080 c-1 -43 28 -292 35 -299 6 -6 -3 86 -21 234 -7 55 -13 84
-14 65z"/>
<path d="M4310 3066 c0 -2 9 -6 20 -9 11 -3 18 -1 14 4 -5 9 -34 13 -34 5z"/>
<path d="M3929 3015 c-4 -38 -6 -40 -39 -40 -32 0 -35 3 -41 35 -6 38 -16 26
-21 -24 -4 -42 -26 -45 -30 -4 -4 39 -23 40 -23 1 0 -25 -5 -28 -48 -36 -51
-8 -77 2 -77 29 0 8 -4 14 -10 14 -14 0 -12 -54 2 -68 7 -7 41 -12 82 -12 54
0 67 -3 58 -12 -18 -18 -15 -28 8 -28 12 0 25 10 32 25 l11 25 189 1 c103 1
193 3 198 4 6 1 36 3 69 4 66 1 75 12 64 77 -7 40 -23 36 -23 -6 0 -16 -4 -32
-10 -35 -6 -4 -10 7 -10 25 0 24 -4 31 -17 28 -9 -2 -20 -14 -23 -28 -5 -20
-12 -25 -35 -25 -23 0 -30 5 -35 25 -8 34 -39 40 -33 7 4 -21 0 -25 -28 -31
-19 -3 -59 -4 -91 0 -55 6 -57 8 -61 38 l-4 31 -1 -33 c-2 -26 -6 -33 -19 -30
-12 2 -20 16 -24 43 l-5 40 -5 -40z"/>
<path d="M4370 2295 c0 -16 6 -25 15 -25 8 0 15 7 15 15 0 8 5 15 11 15 5 0 7
-4 4 -10 -3 -5 -1 -10 4 -10 6 0 11 9 11 20 0 16 -7 20 -30 20 -25 0 -30 -4
-30 -25z"/>
<path d="M3887 7953 c-11 -10 -8 -23 6 -23 6 1 26 7 42 15 l30 13 -36 1 c-20
1 -39 -2 -42 -6z"/>
<path d="M4270 7840 c29 -27 56 -48 58 -45 7 7 -39 75 -58 85 -10 6 -27 10
-36 10 -12 0 -1 -16 36 -50z"/>
<path d="M4402 7833 c19 -21 65 -83 101 -138 81 -121 85 -127 117 -147 25 -16
26 -15 110 63 88 81 95 102 36 102 -14 0 -26 3 -26 6 0 9 -71 43 -77 37 -3 -3
7 -21 23 -41 l27 -36 -33 -34 c-27 -28 -36 -32 -48 -23 -8 7 -23 17 -35 23
-51 26 -47 61 12 102 33 22 32 26 -12 42 -21 8 -25 7 -21 -4 8 -19 -13 -55
-32 -55 -8 0 -24 21 -36 48 -22 50 -32 59 -88 79 -54 20 -57 16 -18 -24z"/>
<path d="M3051 7825 c-25 -14 -52 -32 -60 -40 -15 -15 -14 -17 2 -26 42 -24
85 -71 90 -99 4 -16 11 -30 17 -30 12 0 170 141 170 152 0 3 -19 9 -42 13 -24
4 -57 18 -74 31 -38 29 -48 29 -103 -1z m79 -45 c29 -24 33 -32 24 -47 -12
-19 -61 -30 -75 -16 -4 4 -11 27 -15 51 -6 37 -4 42 12 42 11 0 35 -14 54 -30z"/>
<path d="M2815 7750 c-3 -5 -1 -10 4 -10 6 0 11 5 11 10 0 6 -2 10 -4 10 -3 0
-8 -4 -11 -10z"/>
<path d="M2698 7668 c-9 -7 -28 -35 -42 -61 -22 -42 -23 -49 -9 -54 17 -7 63
40 97 98 17 29 17 29 -7 29 -13 0 -30 -6 -39 -12z"/>
<path d="M4362 7582 c-15 -10 -6 -41 33 -101 14 -23 25 -55 25 -75 0 -19 7
-39 16 -47 15 -12 23 -7 65 40 l49 55 -37 20 c-20 12 -51 41 -68 66 -31 45
-58 58 -83 42z"/>
<path d="M2390 7423 c-23 -27 -62 -69 -86 -95 -24 -26 -44 -51 -44 -56 0 -11
25 -9 72 7 38 12 38 13 23 41 -15 28 -14 30 16 52 31 23 75 85 67 94 -3 2 -24
-17 -48 -43z"/>
<path d="M1788 6054 c-3 -5 1 -29 9 -52 12 -38 12 -45 0 -55 -13 -11 -37 -68
-37 -88 0 -20 17 -6 45 37 17 24 40 47 53 50 12 4 22 9 22 13 0 14 -87 104
-92 95z"/>
<path d="M1920 5922 c0 -5 -20 -34 -44 -65 -91 -117 -115 -162 -122 -223 l-7
-59 49 65 c27 36 67 92 88 125 21 33 52 76 67 96 l29 37 -25 16 c-27 18 -35
20 -35 8z"/>
<path d="M5750 5785 c-20 -21 -21 -28 -11 -52 16 -39 48 -79 56 -71 9 9 -5
148 -14 148 -4 0 -18 -11 -31 -25z"/>
<path d="M1785 5453 c-4 -20 -16 -55 -27 -77 -17 -33 -19 -45 -9 -75 8 -28 7
-40 -4 -58 -26 -40 -16 -48 19 -14 18 18 49 59 67 91 19 33 39 60 46 62 11 3
-64 106 -78 107 -4 1 -10 -16 -14 -36z"/>
<path d="M5810 5388 c0 -6 -9 -22 -21 -34 l-21 -22 25 -37 26 -38 0 72 c0 39
-2 71 -4 71 -3 0 -5 -5 -5 -12z"/>
<path d="M5817 4731 c-27 -36 -64 -94 -84 -130 -20 -36 -59 -91 -88 -121 -56
-59 -105 -127 -105 -147 0 -6 8 -14 18 -17 9 -3 41 -33 71 -66 l53 -61 -26
-39 c-31 -47 -34 -100 -8 -123 25 -23 30 -21 34 10 2 14 8 28 14 30 15 5 27
-60 19 -97 -5 -23 1 -39 25 -75 17 -24 40 -49 50 -55 17 -9 22 -7 30 17 5 15
16 41 25 56 19 35 9 53 -70 120 -30 27 -55 54 -55 61 0 7 16 31 36 54 l35 42
-43 21 c-30 15 -58 42 -91 88 l-48 66 27 23 c19 17 30 20 37 13 13 -13 37 -14
37 -2 0 13 118 221 146 259 23 30 25 37 17 85 l-9 52 -47 -64z"/>
<path d="M1715 4718 c-11 -37 -15 -107 -5 -113 5 -3 10 1 10 10 0 9 9 19 20
22 16 4 20 14 20 43 0 25 -5 40 -16 44 -22 8 -24 8 -29 -6z"/>
<path d="M1725 4550 c-3 -5 1 -10 10 -10 9 0 13 5 10 10 -3 6 -8 10 -10 10 -2
0 -7 -4 -10 -10z"/>
<path d="M1756 4507 c-3 -13 -28 -51 -56 -86 -27 -34 -50 -68 -50 -74 0 -7 -9
-23 -20 -37 -23 -30 -25 -53 -6 -69 11 -10 20 -4 45 26 109 135 133 163 142
163 5 0 21 -12 34 -26 23 -24 23 -28 10 -54 -8 -15 -50 -64 -93 -108 -68 -69
-77 -83 -65 -95 12 -12 9 -21 -25 -64 -22 -27 -64 -67 -93 -89 -30 -21 -55
-42 -57 -46 -2 -4 -9 -5 -15 -3 -7 3 -18 1 -25 -3 -9 -7 -6 -24 17 -78 59
-141 58 -140 94 -97 12 15 46 54 76 86 59 62 54 48 63 202 2 40 -5 86 -17 105
-3 5 0 10 8 10 27 0 64 -39 86 -90 12 -27 24 -50 27 -50 3 0 13 18 23 41 l19
41 -43 45 c-53 55 -60 78 -32 98 27 19 33 14 59 -47 l22 -51 18 23 c24 30 23
64 -4 83 -22 14 -22 15 -5 34 9 11 17 35 17 54 0 29 -11 45 -70 107 -39 39
-72 72 -74 72 -2 0 -6 -10 -10 -23z m-177 -631 c21 -22 31 -41 28 -50 -11 -28
-26 -18 -52 34 -30 59 -22 63 24 16z"/>
<path d="M5809 4438 c-43 -46 -79 -86 -79 -91 0 -4 12 -26 28 -49 15 -22 34
-51 43 -65 l16 -23 27 40 c14 22 26 51 26 65 0 14 6 25 13 25 23 0 60 48 60
77 0 36 -29 103 -43 103 -6 0 -47 -37 -91 -82z"/>
<path d="M5896 4181 c-36 -37 -66 -71 -66 -77 0 -11 42 -54 53 -54 4 0 7 6 7
13 0 16 61 77 77 77 6 0 14 -20 18 -46 5 -36 11 -47 33 -56 39 -15 112 -22
112 -11 0 20 -35 41 -55 33 -34 -14 -35 -12 -29 45 l7 56 -46 43 -45 44 -66
-67z"/>
<path d="M1525 4162 c-11 -15 -19 -30 -18 -34 2 -4 -6 -23 -17 -43 -11 -19
-15 -35 -9 -35 12 0 119 80 119 89 0 8 -43 51 -51 51 -2 0 -13 -13 -24 -28z"/>
<path d="M5950 3971 c0 -21 -62 -127 -96 -161 l-24 -26 26 -37 c25 -37 44 -48
44 -24 0 18 65 148 89 177 l21 25 -7 -150 c-8 -192 8 -231 66 -169 20 21 22
27 10 34 -11 7 -15 42 -17 154 -3 95 -8 148 -15 154 -7 4 -31 16 -54 24 -40
15 -43 15 -43 -1z"/>
<path d="M6136 3948 c-9 -42 -15 -218 -7 -218 12 0 101 97 101 110 0 9 -4 9
-17 -1 -15 -13 -16 -11 -9 24 9 50 1 74 -34 92 -28 15 -30 14 -34 -7z"/>
<path d="M1354 3893 c-15 -21 -36 -46 -46 -56 -38 -37 -11 -64 54 -52 18 3 39
1 47 -4 19 -13 5 -68 -23 -86 -13 -9 -28 -33 -35 -55 -6 -22 -16 -40 -21 -40
-4 0 -22 23 -39 50 -47 76 -80 83 -62 14 5 -22 11 -75 12 -119 1 -44 4 -83 6
-88 9 -16 66 30 99 80 19 28 50 61 69 73 19 12 44 33 55 47 18 23 18 28 5 53
-8 15 -25 41 -39 57 -18 21 -26 46 -31 96 -4 37 -11 67 -15 67 -4 0 -20 -17
-36 -37z"/>
<path d="M1520 3380 l0 -110 40 20 c30 15 40 26 40 45 0 16 18 45 50 80 53 59
59 68 35 59 -8 -4 -15 -1 -15 5 0 7 -27 11 -75 11 l-75 0 0 -110z"/>
<path d="M925 3370 c3 -5 8 -10 11 -10 2 0 4 5 4 10 0 6 -5 10 -11 10 -5 0 -7
-4 -4 -10z"/>
<path d="M820 3281 c0 -5 7 -11 14 -14 10 -4 13 -1 9 9 -6 15 -23 19 -23 5z"/>
<path d="M781 3234 c-12 -14 -20 -28 -17 -32 4 -3 -6 -13 -20 -23 -26 -17 -26
-17 -5 -24 12 -3 19 -11 15 -16 -3 -6 48 -65 114 -132 131 -134 245 -261 337
-377 203 -256 449 -528 729 -804 l130 -129 24 108 25 108 -101 94 c-99 92
-146 145 -407 453 -461 545 -574 670 -691 766 -40 33 -48 36 -66 25 -11 -7
-17 -8 -13 -2 9 15 -8 14 -24 -1 -11 -10 -13 -10 -7 0 12 20 1 14 -23 -14z
m24 -42 c-3 -3 -11 0 -18 7 -9 10 -8 11 6 5 10 -3 15 -9 12 -12z"/>
<path d="M5032 1727 l-72 -72 79 -83 78 -84 66 74 c37 40 67 78 67 83 0 6 -33
43 -73 83 l-72 72 -73 -73z"/>
<path d="M2192 1734 c-29 -33 -44 -62 -52 -97 l-10 -50 48 -51 49 -51 67 77
67 78 -63 70 c-34 39 -63 70 -64 70 0 0 -19 -21 -42 -46z"/>
<path d="M2512 1702 l-53 -48 48 -56 c26 -31 51 -57 56 -57 4 -1 7 46 7 104 0
58 -1 105 -2 105 -2 -1 -27 -22 -56 -48z"/>
<path d="M4788 1643 l4 -68 35 39 35 38 -28 29 c-42 44 -49 38 -46 -38z"/>
<path d="M5356 1652 c-16 -31 -16 -32 15 -74 l32 -43 -7 53 c-4 29 -10 62 -15
74 -8 22 -9 21 -25 -10z"/>
<path d="M2343 1519 l-73 -71 62 -69 c33 -38 63 -69 66 -69 9 0 152 154 150
160 -4 8 -124 120 -129 120 -2 0 -37 -32 -76 -71z"/>
<path d="M4851 1539 c-67 -62 -65 -73 28 -162 l70 -66 55 61 c31 34 56 66 56
72 0 14 -132 146 -145 146 -6 -1 -34 -23 -64 -51z"/>
<path d="M5237 1519 c-37 -33 -67 -67 -67 -73 0 -7 15 -26 33 -43 17 -16 44
-45 59 -64 l27 -34 37 40 c19 22 50 54 66 72 35 36 38 26 -35 116 -21 26 -42
47 -46 47 -4 0 -37 -27 -74 -61z"/>
<path d="M2096 1444 c-11 -83 -9 -85 35 -41 l41 41 -27 23 c-14 13 -30 23 -34
23 -5 0 -11 -21 -15 -46z"/>
<path d="M2151 1329 l-64 -68 41 -48 c22 -26 54 -61 72 -78 28 -27 32 -28 41
-13 5 9 32 44 61 78 l51 62 -69 67 -69 67 -64 -67z"/>
<path d="M5057 1327 l-56 -64 56 -72 c31 -39 62 -71 69 -71 15 0 102 96 117
128 9 20 4 28 -53 80 -35 31 -66 58 -70 60 -4 1 -32 -26 -63 -61z"/>
<path d="M2495 1315 l-60 -53 55 -57 55 -56 6 108 c4 59 6 109 5 110 -1 1 -29
-22 -61 -52z"/>
<path d="M4793 1355 c3 -11 9 -60 13 -108 3 -48 10 -87 14 -85 8 3 80 95 80
103 0 5 -34 40 -79 80 -28 25 -32 27 -28 10z"/>
<path d="M5381 1308 l-43 -49 43 -47 c24 -26 52 -58 62 -72 18 -25 18 -24 12
50 -3 41 -11 96 -18 121 l-12 46 -44 -49z"/>
<path d="M4888 1151 c-32 -32 -58 -60 -58 -64 0 -4 52 -7 115 -7 88 0 115 3
115 13 0 12 -29 42 -90 93 l-25 21 -57 -56z"/>
<path d="M5245 1152 l-49 -57 103 -3 c57 -1 106 0 109 3 6 6 -98 116 -108 114
-3 0 -27 -26 -55 -57z"/>
<path d="M2338 1140 l-63 -59 120 -1 119 0 -39 42 c-22 22 -48 49 -57 59 -17
18 -20 17 -80 -41z"/>
<path d="M2040 1150 c-6 -22 -8 -45 -5 -50 3 -6 34 -10 67 -10 l62 0 -30 31
c-16 17 -41 40 -56 50 l-27 20 -11 -41z"/>
<path d="M5300 1034 c-91 -7 -201 -13 -244 -13 -76 -1 -78 -2 -63 -19 10 -10
17 -30 17 -45 0 -33 6 -36 62 -30 42 5 47 8 43 27 -7 28 9 51 29 43 11 -4 16
-19 16 -43 l0 -36 43 7 c63 10 78 15 71 27 -4 6 3 5 15 -2 20 -10 118 -6 194
8 12 3 4 85 -8 87 -5 1 -84 -4 -175 -11z"/>
<path d="M2030 1010 c0 -12 5 -18 10 -15 6 3 10 -1 10 -9 0 -9 -8 -16 -17 -16
-17 -1 -17 -1 0 -11 16 -9 227 -28 328 -29 l47 0 4 41 c2 23 -1 43 -7 44 -5 2
-92 6 -192 9 -181 6 -183 6 -183 -14z m260 -40 c0 -15 -7 -20 -25 -20 -27 0
-32 9 -13 28 18 18 38 14 38 -8z m-90 -10 c0 -5 -12 -10 -26 -10 -14 0 -23 4
-19 10 3 6 15 10 26 10 10 0 19 -4 19 -10z"/>
<path d="M2938 553 c6 -2 18 -2 25 0 6 3 1 5 -13 5 -14 0 -19 -2 -12 -5z"/>
<path d="M3003 543 c15 -2 39 -2 55 0 15 2 2 4 -28 4 -30 0 -43 -2 -27 -4z"/>
<path d="M4453 543 c9 -2 25 -2 35 0 9 3 1 5 -18 5 -19 0 -27 -2 -17 -5z"/>
<path d="M3138 533 c12 -2 32 -2 45 0 12 2 2 4 -23 4 -25 0 -35 -2 -22 -4z"/>
<path d="M4318 533 c18 -2 45 -2 60 0 15 2 0 4 -33 4 -33 0 -45 -2 -27 -4z"/>
<path d="M3268 523 c6 -2 18 -2 25 0 6 3 1 5 -13 5 -14 0 -19 -2 -12 -5z"/>
<path d="M3478 523 c23 -2 59 -2 80 0 20 2 1 4 -43 4 -44 0 -61 -2 -37 -4z"/>
<path d="M4198 523 c12 -2 32 -2 45 0 12 2 2 4 -23 4 -25 0 -35 -2 -22 -4z"/>
<path d="M5155 405 c-60 -13 -157 -31 -215 -40 -58 -9 -130 -20 -160 -25 -30
-5 -95 -15 -145 -24 -113 -19 -406 -43 -638 -51 -309 -11 -950 23 -1222 66
-71 11 -204 31 -295 44 -91 13 -181 29 -200 35 -44 13 -67 13 -54 1 12 -12
236 -57 348 -70 49 -6 91 -13 94 -16 3 -3 -6 -18 -20 -33 -55 -59 -88 -120
-88 -160 0 -59 27 -67 230 -67 186 0 308 21 455 77 90 35 118 53 136 85 l12
23 348 0 348 0 28 -40 c30 -42 56 -54 226 -105 117 -35 186 -45 338 -46 137
-1 203 11 219 41 25 47 3 108 -61 175 l-39 41 193 32 c177 31 327 66 327 77 0
10 -57 3 -165 -20z"/>
</g>
</svg>
