<?xml version="1.0" standalone="no"?>
<!DOCTYPE svg PUBLIC "-//W3C//DTD SVG 20010904//EN"
 "http://www.w3.org/TR/2001/REC-SVG-20010904/DTD/svg10.dtd">
<svg version="1.0" xmlns="http://www.w3.org/2000/svg"
 width="496.000000pt" height="385.000000pt" viewBox="0 0 496.000000 385.000000"
 preserveAspectRatio="xMidYMid meet">

<g transform="translate(0.000000,385.000000) scale(0.100000,-0.100000)"
fill="#000000" stroke="none">
<path d="M2310 3768 c-22 -24 -27 -48 -9 -48 20 0 99 -72 99 -92 0 -42 -71
-29 -114 22 -12 15 -37 35 -55 44 -32 17 -33 24 -3 59 14 16 13 17 -19 11 -61
-12 -104 -29 -99 -39 3 -5 40 -41 82 -78 43 -38 78 -73 78 -78 0 -12 -39 -36
-70 -43 -20 -5 -29 0 -45 23 -58 84 -169 181 -207 181 -51 0 -52 -16 -2 -50
27 -18 61 -44 76 -58 l28 -25 -106 -101 c-58 -55 -111 -104 -117 -108 -8 -5
-4 -15 12 -32 26 -28 22 -56 -8 -56 -13 0 -29 18 -49 53 -17 29 -58 78 -92
107 -34 29 -66 65 -72 79 l-10 26 -35 -40 c-103 -117 -153 -176 -153 -183 0
-4 -71 -101 -158 -217 -116 -154 -168 -216 -197 -232 -49 -28 -77 -30 -68 -6
10 26 162 250 236 346 37 48 67 96 67 107 0 21 -28 40 -59 40 -24 0 -25 -3 -9
-30 11 -16 9 -23 -14 -47 -14 -15 -29 -38 -33 -51 -3 -12 -17 -30 -31 -38 -14
-10 -24 -26 -24 -40 0 -14 -12 -32 -34 -49 -19 -14 -37 -38 -41 -53 -3 -15
-14 -38 -23 -52 -9 -14 -31 -54 -50 -90 -34 -66 -93 -130 -120 -130 -17 0 -9
57 14 102 8 15 14 33 14 40 0 6 16 29 36 49 29 29 34 41 28 63 -11 43 -74 30
-74 -16 0 -10 -16 -35 -35 -57 -19 -21 -35 -45 -35 -52 0 -8 -18 -37 -40 -66
-21 -29 -46 -65 -55 -80 -9 -15 -29 -50 -45 -76 l-30 -48 42 26 c47 29 260
133 335 164 266 107 739 222 1008 246 130 11 343 18 368 11 30 -7 35 -21 12
-29 -8 -4 -112 -13 -232 -22 -120 -9 -267 -24 -328 -35 -60 -10 -132 -21 -160
-25 -62 -8 -322 -74 -429 -109 -95 -31 -248 -92 -296 -117 -19 -11 -39 -19
-43 -19 -13 0 -222 -121 -309 -179 -77 -51 -133 -106 -149 -148 -5 -13 -9 -47
-9 -75 0 -43 2 -49 15 -38 8 7 -1 -26 -22 -77 -38 -94 -56 -218 -40 -267 13
-38 21 -32 41 29 15 50 36 81 36 56 0 -6 7 -11 15 -11 8 0 15 6 15 13 0 7 16
19 35 27 19 8 35 17 35 22 0 15 27 8 45 -12 20 -22 14 -50 -10 -50 -16 0 -85
-60 -85 -74 0 -10 102 -136 137 -169 l30 -28 51 88 c77 131 77 131 110 113 21
-12 28 -24 30 -55 2 -25 -2 -43 -11 -50 -7 -5 -19 -21 -26 -34 -18 -33 -93
-131 -149 -193 -83 -93 -172 -221 -172 -247 0 -10 11 -28 24 -40 13 -12 31
-40 41 -61 18 -40 18 -40 -9 -79 -15 -21 -32 -55 -37 -76 -6 -21 -30 -79 -54
-129 -23 -50 -46 -101 -49 -114 -4 -12 -16 -27 -27 -32 -46 -25 1 -119 117
-234 39 -39 79 -86 90 -103 10 -18 22 -33 26 -33 4 0 8 -18 8 -40 0 -32 -3
-39 -13 -33 -14 8 -168 180 -219 244 -24 31 -27 32 -27 12 -1 -13 11 -30 28
-42 29 -21 66 -104 55 -122 -9 -15 11 -39 46 -57 19 -9 41 -30 50 -45 14 -26
14 -29 -8 -45 -23 -18 -23 -18 -5 -50 10 -18 21 -32 24 -32 3 0 13 16 22 35 9
19 23 35 31 35 23 0 39 -38 31 -77 -5 -29 -9 -32 -21 -22 -28 23 -28 -2 -1
-80 26 -72 27 -79 12 -107 -8 -16 -15 -23 -15 -16 0 6 -7 12 -15 12 -10 0 -15
-10 -15 -30 0 -30 0 -30 60 -30 33 0 59 3 59 8 -4 26 1 34 16 22 8 -7 13 -16
10 -20 -3 -5 90 -9 206 -10 l212 -1 153 71 c131 61 227 91 279 90 10 -1 -279
-146 -305 -153 -8 -3 98 -5 236 -6 l250 -1 13 65 c7 36 16 65 20 65 3 0 17
-16 30 -35 32 -47 87 -95 109 -95 12 0 -1 19 -43 63 -86 89 -91 102 -70 171
10 31 21 59 26 61 4 3 65 -15 136 -40 70 -24 164 -54 208 -65 111 -29 115 -33
77 -65 -17 -14 -44 -48 -61 -75 l-31 -50 25 0 c14 0 25 6 25 13 0 8 14 33 30
56 25 34 35 40 54 35 13 -3 37 1 53 9 37 19 44 15 80 -53 21 -38 37 -56 52
-58 21 -3 20 1 -18 57 -23 33 -51 67 -63 75 -12 9 -19 18 -17 21 3 3 62 20
130 39 68 19 166 48 217 65 51 17 98 31 105 31 18 0 42 -142 28 -167 -5 -10
-34 -42 -65 -71 -31 -29 -48 -52 -39 -52 27 0 71 32 94 71 13 21 27 39 31 39
4 0 10 -17 13 -37 14 -80 -12 -73 268 -73 l252 1 -140 71 c-77 39 -142 73
-145 75 -24 22 160 -48 282 -107 l82 -40 308 0 c284 0 332 4 298 25 -15 9 -46
74 -55 112 -5 27 -3 33 9 33 17 0 141 179 131 189 -3 3 -23 4 -44 2 -22 -1
-42 2 -46 8 -3 6 11 32 32 59 20 26 39 49 40 51 3 5 116 -117 121 -131 2 -4
-20 -34 -48 -65 -64 -70 -93 -124 -70 -131 24 -8 130 -126 125 -139 -5 -16 82
-18 105 -3 11 7 5 13 -28 28 -32 14 -57 38 -93 88 l-50 69 27 23 c19 17 30 20
37 13 13 -13 37 -14 37 -2 0 14 99 191 136 244 32 44 34 51 28 102 l-7 54 -49
-67 c-28 -37 -68 -100 -90 -140 -29 -52 -43 -70 -49 -60 -5 7 -9 22 -9 32 0
11 -12 49 -26 84 -19 47 -23 70 -17 85 9 20 11 19 28 -11 21 -35 39 -41 49
-16 4 10 -4 30 -19 50 -23 30 -25 36 -12 54 14 19 14 19 37 -5 27 -28 42 -31
59 -11 9 11 7 24 -11 60 -12 25 -19 48 -16 52 4 3 21 -2 38 -13 30 -17 32 -17
44 0 15 20 21 183 7 192 -10 5 -13 2 -92 -107 -104 -144 -163 -221 -197 -262
-20 -24 -55 -68 -77 -99 -22 -32 -43 -57 -47 -57 -5 0 -8 18 -8 40 0 48 37
131 61 137 18 5 35 33 21 33 -9 0 -8 42 2 94 7 36 60 126 75 126 23 0 21 -42
-3 -86 -14 -24 -22 -52 -19 -60 5 -14 97 113 188 262 12 18 28 41 38 52 22 24
21 27 -5 62 -25 34 -38 38 -38 11 0 -38 -83 -191 -104 -191 -12 0 -25 27 -47
99 -7 24 -21 54 -31 66 -19 25 -24 65 -8 65 13 0 42 -58 49 -99 l6 -34 48 61
c42 55 46 63 35 82 -13 21 -38 28 -38 10 0 -19 -21 -10 -50 22 -36 39 -63 116
-54 152 12 51 34 31 86 -76 29 -62 41 -69 60 -38 7 11 20 20 28 20 9 0 26 19
38 42 12 24 33 64 48 90 19 36 24 55 19 78 -7 30 -8 31 -26 14 -10 -9 -19 -23
-19 -30 0 -12 -29 -34 -44 -34 -13 0 -57 104 -63 148 -3 27 -16 59 -30 75 -12
16 -23 33 -23 39 0 11 -108 238 -114 238 -1 0 -1 -12 2 -28 2 -18 -4 -35 -17
-51 -26 -30 -26 -42 -2 -72 10 -13 29 -44 41 -69 13 -25 34 -59 47 -76 20 -28
22 -35 12 -58 -7 -14 -16 -26 -20 -26 -15 0 -58 66 -89 133 -17 37 -32 67 -35
67 -3 0 -14 -14 -24 -32 l-20 -31 24 -19 c14 -10 41 -50 61 -89 20 -38 43 -69
51 -69 18 0 13 -27 -22 -114 -14 -36 -21 -64 -16 -70 14 -18 17 -59 4 -63 -10
-4 -23 20 -29 54 -1 7 -10 20 -19 30 -19 19 -38 60 -49 108 l-8 30 22 -28 c12
-15 26 -25 31 -22 16 11 10 44 -19 99 -16 29 -31 63 -35 75 -5 22 -6 22 -32 5
-26 -17 -27 -17 -58 14 l-31 32 32 62 c18 35 32 68 32 74 0 6 15 30 33 54 42
56 84 119 99 150 7 14 28 43 48 66 20 22 56 72 80 112 23 40 48 72 55 72 18 0
30 -111 16 -138 -6 -11 -25 -31 -42 -43 -17 -12 -39 -35 -49 -52 -19 -30 -19
-30 14 -96 18 -36 41 -90 50 -118 10 -29 26 -63 35 -75 l18 -22 13 25 c7 13
28 41 46 62 19 20 34 42 34 47 0 19 -31 23 -49 6 -18 -16 -20 -15 -46 30 -21
36 -26 55 -22 85 4 33 25 69 40 69 2 0 3 -29 1 -65 -2 -35 1 -67 6 -70 5 -3
21 5 36 18 l28 24 -17 74 c-17 76 -20 100 -18 133 2 30 25 3 56 -66 24 -54 29
-59 38 -42 18 32 13 107 -10 145 -18 30 -21 49 -20 159 1 151 -11 181 -103
261 -54 47 -73 71 -52 68 23 -4 21 5 -8 37 -17 20 -45 65 -61 99 -17 34 -44
72 -60 84 -21 16 -28 28 -24 41 3 11 -1 33 -10 50 l-16 30 -59 -60 -58 -61
-38 16 c-65 27 -69 34 -32 67 18 16 57 45 86 64 28 19 52 39 52 43 0 13 -72
102 -118 147 -191 186 -229 216 -243 193 -6 -11 -23 2 -71 53 -35 36 -76 74
-92 84 l-29 18 17 -32 c9 -18 14 -37 11 -41 -3 -5 -40 -28 -83 -51 -42 -23
-81 -46 -87 -51 -6 -6 3 -21 26 -43 91 -86 251 -318 224 -324 -31 -7 -130 72
-152 121 -17 36 -134 177 -148 177 -6 0 -27 -16 -46 -36 -18 -19 -55 -52 -81
-72 -27 -20 -48 -44 -48 -54 0 -27 -46 -23 -75 6 -13 13 -37 50 -53 82 -16 33
-51 88 -78 123 l-48 64 30 23 c16 13 32 24 37 24 18 0 85 53 95 75 8 18 8 26
-3 35 -16 13 -21 10 -107 -62 -25 -21 -61 -44 -81 -53 -35 -14 -36 -14 -56 11
-31 39 -26 58 22 84 100 56 130 93 85 106 -13 3 -40 28 -61 55 -20 27 -42 49
-48 49 -6 0 8 -23 30 -52 46 -56 47 -71 9 -76 -21 -2 -35 9 -77 58 -28 34 -51
66 -51 71 0 5 12 12 28 16 l27 7 -25 6 c-32 9 -87 -13 -125 -51 -17 -16 -36
-29 -42 -29 -6 0 -29 25 -52 55 -34 45 -47 55 -71 55 -18 0 -30 -5 -30 -13 0
-7 39 -48 86 -91 47 -43 103 -102 125 -131 21 -28 65 -72 98 -97 58 -46 179
-183 219 -248 11 -19 34 -48 51 -64 17 -16 28 -32 26 -36 -8 -12 -71 6 -104
29 -29 21 -96 97 -133 151 l-16 25 -44 -41 c-94 -90 -166 -124 -259 -124 -103
0 -89 27 59 117 52 32 108 63 123 68 16 6 29 14 30 18 1 14 -110 127 -125 127
-27 0 -27 -20 0 -55 23 -31 25 -38 13 -50 -24 -23 -43 -21 -86 10 -57 41 -68
61 -46 80 106 90 100 81 79 104 l-19 21 -46 -41 c-25 -22 -72 -60 -103 -83
l-57 -44 37 -6 c20 -3 63 -24 94 -47 49 -34 56 -43 48 -59 -10 -19 -62 -60
-77 -60 -4 0 -19 -16 -33 -35 -14 -19 -30 -35 -36 -35 -17 0 -75 52 -90 82 -8
15 -24 34 -37 42 -21 14 -26 12 -105 -63 -45 -43 -82 -81 -82 -86 0 -4 11 -4
25 -1 14 4 25 2 25 -4 0 -5 -19 -10 -42 -10 -24 -1 -60 -3 -80 -6 l-37 -6 9
34 c10 35 119 143 178 175 17 10 32 20 32 24 0 4 -32 37 -72 74 l-72 68 32 28
c18 16 37 29 42 29 5 0 22 -17 37 -37 62 -82 275 -274 290 -260 17 18 -99 147
-133 147 -44 0 -81 63 -50 86 10 7 67 40 127 74 60 34 109 64 109 67 0 3 -12
20 -27 38 -16 17 -40 53 -55 78 -15 26 -32 47 -37 47 -6 0 -19 -10 -31 -22z
m440 -152 c56 -53 61 -61 51 -83 -6 -12 -14 -23 -19 -23 -5 0 -42 31 -83 70
-71 67 -73 70 -54 85 11 9 25 14 31 13 7 -2 40 -30 74 -62z m-1078 -211 c42
-36 79 -74 83 -85 5 -16 -18 -46 -115 -148 -132 -137 -145 -148 -205 -157 -22
-4 -82 -20 -134 -36 -51 -16 -95 -28 -97 -26 -2 2 11 24 29 48 19 24 46 63 61
87 32 51 50 52 83 3 17 -25 20 -38 13 -52 -8 -14 -7 -17 3 -13 8 3 19 15 25
27 5 12 62 77 126 144 64 67 116 124 116 126 0 3 -22 18 -49 32 -55 30 -77 65
-61 96 17 31 41 22 122 -46z m357 13 c22 -24 41 -49 41 -55 0 -7 -12 -19 -27
-27 -44 -24 -173 -150 -173 -169 0 -9 9 -26 20 -37 12 -12 15 -22 9 -26 -14
-8 -101 5 -117 18 -9 8 -11 7 -7 -4 8 -20 -41 -38 -99 -38 -23 0 -48 -6 -56
-12 -7 -7 1 6 20 30 18 24 44 51 59 60 14 9 34 27 44 39 9 12 30 24 46 28 19
4 51 31 93 78 34 40 66 73 69 75 3 1 3 16 1 33 -4 29 8 48 30 49 4 0 25 -19
47 -42z m-439 -82 c0 -12 -127 -173 -153 -194 -23 -19 -56 -6 -63 25 -6 21 -2
30 20 46 15 10 34 33 42 50 9 16 37 52 62 79 l45 48 24 -21 c12 -13 23 -27 23
-33z m2044 13 c20 -22 41 -51 46 -65 13 -33 12 -44 -1 -21 -6 9 -15 15 -20 11
-5 -3 -17 0 -25 7 -23 19 -39 -3 -24 -31 9 -17 9 -28 0 -48 l-12 -26 -19 24
c-11 14 -33 45 -50 70 l-30 45 43 37 c24 21 46 38 49 38 4 0 23 -18 43 -41z
m171 -238 c28 -44 54 -81 59 -81 17 0 46 33 46 52 0 10 -6 18 -13 18 -13 0
-32 23 -82 96 -28 41 -33 63 -10 44 8 -7 25 -10 40 -6 18 5 25 2 25 -8 0 -7 6
-19 14 -25 7 -6 19 -32 26 -56 7 -25 18 -45 24 -45 13 0 56 -60 56 -78 0 -7
-6 -12 -14 -12 -8 0 -37 -16 -66 -35 -63 -42 -78 -43 -86 -7 -8 29 -81 152
-99 164 -16 12 -25 9 -25 -7 0 -21 59 -134 92 -177 22 -28 26 -38 14 -38 -37
0 -66 26 -106 98 -24 42 -58 92 -77 112 l-32 37 27 26 c16 15 33 27 38 27 6 0
19 9 30 21 l19 21 25 -31 c14 -16 48 -66 75 -110z m-1557 87 l55 -43 -39 -11
c-49 -14 -92 1 -114 38 -12 22 -12 29 -1 42 21 25 40 20 99 -26z m633 -20 c32
-35 56 -64 54 -66 -1 -2 -19 0 -38 3 -63 12 -137 91 -110 118 16 17 40 3 94
-55z m516 -48 c26 -38 58 -73 70 -76 25 -7 59 -41 50 -51 -4 -3 -58 8 -119 25
-62 18 -122 33 -133 33 -16 1 -17 2 -3 6 9 2 15 10 12 17 -3 7 2 19 11 26 8 7
15 20 15 29 0 19 27 61 40 61 5 0 30 -31 57 -70z m-611 25 l23 -25 -53 0 c-66
0 -76 9 -34 32 42 22 37 22 64 -7z m-636 -5 c0 -5 -9 -10 -21 -10 -11 0 -17 5
-14 10 3 6 13 10 21 10 8 0 14 -4 14 -10z m-1368 -370 c-15 -14 -21 -18 -14
-10 6 7 12 24 12 36 0 12 3 30 7 40 6 15 8 13 15 -11 6 -25 3 -34 -20 -55z
m1392 -80 c-7 -35 -6 -35 32 -15 42 22 91 19 104 -5 6 -11 8 -25 5 -30 -3 -6
-44 -10 -90 -10 -46 0 -86 -4 -90 -9 -9 -15 -116 -52 -139 -49 -17 3 -11 12
38 65 34 37 71 67 90 72 52 15 56 14 50 -19z m272 -5 c18 -14 38 -25 45 -25
17 0 49 30 49 47 0 14 29 17 79 7 l32 -7 -53 -52 c-64 -63 -86 -72 -130 -49
-36 18 -118 93 -118 107 0 16 62 -2 96 -28z m-432 -7 c-4 -7 -33 -42 -63 -77
-31 -35 -55 -68 -53 -73 6 -20 -26 -54 -77 -82 -29 -15 -55 -26 -57 -23 -7 7
44 96 84 147 46 57 80 90 112 107 33 17 64 17 54 1z m764 -67 c1 -41 -2 -53
-20 -66 -35 -24 -64 -18 -92 18 -15 19 -26 39 -26 44 0 6 27 16 60 22 42 8 60
17 60 27 0 8 4 13 9 10 4 -3 9 -28 9 -55z m-945 29 c-3 -11 -9 -23 -14 -26 -5
-3 -9 -14 -9 -24 0 -28 -60 -117 -111 -168 -24 -23 -54 -54 -67 -68 l-23 -25
-33 21 c-36 22 -59 13 -26 -10 10 -7 16 -19 13 -26 -6 -16 -153 -127 -159
-121 -12 11 11 61 41 90 39 39 115 149 115 168 0 8 21 49 46 92 42 72 84 111
101 94 10 -10 -28 -47 -48 -47 -10 0 -21 -4 -24 -10 -3 -5 1 -10 9 -10 9 0 16
-3 16 -6 0 -10 -34 -68 -57 -97 -29 -36 -30 -67 -3 -67 14 0 20 7 20 21 0 19
112 170 164 222 25 25 56 23 49 -3z m1171 -31 c-7 -15 -14 -32 -14 -38 0 -5
27 -35 61 -68 34 -32 70 -75 80 -95 17 -33 24 -38 54 -38 49 0 45 18 -18 87
-82 89 -94 123 -43 123 15 0 36 -15 60 -42 19 -24 59 -68 87 -98 86 -94 148
-180 142 -197 -7 -19 -2 -16 67 31 52 36 70 52 70 61 0 4 -13 22 -29 41 -16
18 -42 54 -57 79 -33 57 -22 75 26 43 34 -23 39 -30 62 -82 7 -16 21 -30 31
-32 10 -1 27 -10 37 -19 16 -15 17 -14 13 10 -3 14 0 32 7 40 7 8 10 22 6 30
-3 8 -1 15 4 15 6 0 10 -5 10 -10 0 -7 22 -9 61 -7 51 4 60 2 57 -12 -2 -11
-15 -16 -41 -18 -21 0 -41 -4 -44 -7 -3 -3 10 -30 30 -59 19 -30 52 -86 71
-126 24 -48 45 -75 61 -81 24 -9 55 -56 55 -83 0 -8 16 -38 36 -67 50 -73 77
-137 70 -166 -4 -13 -12 -24 -20 -24 -18 0 -105 130 -112 169 -7 35 -15 38
-50 15 -25 -17 -25 -17 -5 -38 10 -12 47 -68 81 -124 l63 -104 -21 -20 c-11
-11 -25 -17 -31 -14 -18 12 -90 122 -111 171 -20 46 -36 55 -59 33 -10 -11
-17 -7 -37 15 -36 42 -31 68 30 133 l54 58 -27 26 c-14 15 -42 54 -61 86 -38
64 -64 75 -97 41 -17 -17 -17 -19 0 -28 21 -12 107 -157 107 -180 0 -9 -7 -22
-15 -29 -13 -10 -19 -9 -36 6 -25 23 -109 148 -109 163 0 16 -8 14 -60 -18
-51 -31 -79 -32 -112 -3 -22 19 -23 30 -1 54 14 16 14 18 0 18 -15 0 -52 35
-95 90 l-20 25 -20 -25 -21 -25 27 -27 c14 -16 23 -28 19 -28 -19 0 -187 94
-187 104 0 7 -20 28 -45 46 -26 19 -58 54 -73 77 -15 24 -30 43 -34 43 -13 0
-69 103 -64 117 4 11 23 14 75 12 l70 -2 -15 -28z m-1424 -7 c0 -58 -80 -192
-188 -317 -46 -52 -58 -72 -50 -82 5 -7 7 -24 4 -38 -5 -18 -13 -25 -32 -25
-57 0 -112 50 -99 90 5 16 2 20 -17 20 -17 -1 -39 -23 -88 -92 -36 -49 -80
-103 -98 -118 -30 -24 -32 -30 -21 -47 28 -46 65 -48 74 -4 6 31 42 87 71 110
14 11 22 25 19 33 -8 21 28 63 48 55 9 -3 23 -17 32 -31 l17 -26 -135 -134
-135 -135 -44 48 c-23 27 -60 70 -81 95 -21 25 -42 46 -47 46 -5 0 -16 -15
-25 -32 -8 -18 -38 -64 -66 -101 -48 -66 -51 -68 -72 -54 -39 25 -33 58 26
144 29 43 59 97 65 119 18 63 35 72 76 40 40 -30 56 -33 56 -8 0 28 192 276
223 286 15 5 29 7 32 5 7 -8 -68 -151 -117 -222 -60 -88 -78 -107 -105 -107
-32 0 -29 -13 11 -43 l33 -26 82 128 c44 70 81 131 81 136 0 4 20 31 43 59 24
28 49 61 56 73 22 43 46 47 101 17 64 -35 67 -59 7 -51 l-42 6 -29 -59 c-16
-32 -26 -66 -23 -74 10 -26 44 -18 65 16 23 36 141 174 218 255 47 49 74 65
74 45z m1742 -55 c66 -55 171 -198 166 -226 -2 -9 -13 -17 -24 -19 -15 -2 -37
15 -78 60 -82 90 -133 158 -151 201 -15 35 -14 37 5 37 11 0 48 -24 82 -53z
m-1928 -15 c23 -44 5 -61 -32 -31 -17 13 -31 27 -31 30 -1 5 30 24 46 28 1 1
9 -12 17 -27z m1231 8 c3 -5 2 -10 -4 -10 -5 0 -13 5 -16 10 -3 6 -2 10 4 10
5 0 13 -4 16 -10z m284 -17 c20 -17 21 -19 6 -41 -36 -50 -123 -66 -155 -27
-9 11 -1 20 42 49 60 41 77 43 107 19z m56 -120 c19 -20 33 -38 30 -41 -6 -6
-115 49 -115 59 0 8 18 17 37 18 7 1 28 -15 48 -36z m847 -23 c11 0 30 -11 43
-25 19 -18 25 -35 25 -70 0 -25 4 -45 9 -45 5 0 27 20 49 45 22 25 47 45 55
45 25 0 67 -52 67 -81 0 -15 7 -32 16 -40 9 -7 29 -32 45 -56 17 -23 41 -46
54 -49 14 -3 25 -9 25 -12 0 -4 -19 -25 -42 -49 l-42 -42 -43 91 c-24 50 -46
102 -49 115 -6 22 -7 22 -38 6 -17 -8 -32 -17 -34 -18 -3 -3 44 -89 98 -178
17 -29 21 -45 15 -74 -8 -44 -13 -40 -82 68 -26 41 -63 98 -81 125 -18 27 -35
60 -39 74 -3 14 -20 48 -38 75 -35 55 -65 129 -43 107 6 -6 20 -12 30 -12z
m-1254 -34 c3 -4 1 -11 -7 -15 -7 -5 -12 -11 -12 -15 3 -21 -2 -24 -26 -20
-49 9 -88 38 -76 57 6 10 110 3 121 -7z m-1682 -86 c-14 -22 -31 -40 -36 -40
-6 0 -10 20 -10 45 0 38 4 46 28 59 25 13 28 13 36 -5 7 -14 2 -29 -18 -59z
m975 38 c14 -6 35 -26 47 -45 12 -18 26 -33 32 -33 13 0 116 -111 112 -122 -1
-5 2 -7 8 -3 5 3 25 -5 43 -19 52 -40 172 -95 245 -113 80 -19 275 -22 342 -4
63 16 120 42 115 51 -3 5 -26 11 -53 15 -26 3 -85 22 -132 41 -47 19 -71 32
-54 28 94 -16 211 -2 385 46 40 11 75 20 76 20 1 0 -2 -11 -7 -25 -11 -28 -1
-64 23 -84 9 -7 47 -19 84 -28 121 -27 132 -28 159 -2 l24 22 0 -22 c0 -18 4
-22 19 -18 15 3 18 1 14 -11 -5 -11 -2 -14 10 -9 11 4 14 2 10 -9 -3 -7 -1
-14 5 -14 5 0 12 -8 14 -17 3 -10 23 -27 44 -38 22 -11 41 -22 44 -25 3 -3 20
-17 39 -30 18 -12 48 -37 65 -54 18 -17 43 -40 57 -52 88 -77 105 -137 97
-364 -3 -80 -3 -151 -1 -157 6 -16 32 -3 92 45 33 27 53 35 87 37 58 2 65 -18
21 -64 -113 -121 -154 -209 -72 -155 34 22 32 1 -2 -26 -23 -18 -25 -22 -12
-35 9 -10 43 -17 89 -20 123 -8 138 -13 155 -44 13 -27 13 -31 -8 -62 -49 -73
-226 -130 -347 -111 l-61 9 -53 -77 c-114 -162 -283 -275 -546 -364 -225 -76
-359 -97 -630 -97 -304 1 -492 24 -698 87 -139 43 -317 126 -399 187 -77 57
-179 176 -227 265 -26 47 -36 60 -35 42 2 -45 -1 -49 -47 -56 -82 -12 -203 28
-298 98 -49 36 -85 100 -60 106 8 2 14 8 14 14 0 5 8 7 17 4 9 -4 19 -2 23 4
3 6 45 11 93 12 74 1 87 4 92 19 4 11 3 24 -2 31 -4 7 -9 21 -10 30 -2 14 3
13 34 -7 67 -46 68 -28 5 58 -22 28 -44 67 -50 85 -10 29 -9 34 13 48 22 15
26 14 77 -20 29 -20 63 -36 75 -36 22 0 22 2 15 63 -9 82 -9 349 1 410 5 26
12 45 18 42 5 -4 9 1 9 9 0 9 4 16 10 16 14 0 140 124 140 137 0 7 4 15 10 18
6 4 7 -1 4 -12 -6 -15 -4 -15 9 2 9 11 17 26 17 33 0 7 4 11 9 8 5 -4 7 4 3
16 -5 21 -4 22 11 9 15 -12 17 -11 17 4 0 12 5 15 16 11 14 -5 15 -4 5 8 -9
11 -7 14 14 14 31 0 55 19 55 44 0 10 6 18 13 17 28 -3 37 2 38 24 0 21 1 21
9 2 8 -18 9 -18 9 -2 1 10 8 20 17 24 8 3 13 12 10 20 -4 8 -1 11 5 7 6 -3 21
4 34 16 13 12 30 20 37 17 8 -3 3 -9 -13 -15 -68 -27 -94 -111 -49 -156 20
-20 21 -20 86 -3 36 9 86 26 110 37 104 45 59 145 -62 138 -34 -2 -56 2 -64
11 -11 11 -9 12 8 6 28 -8 50 4 31 17 -10 6 -7 7 10 3 16 -5 21 -4 17 4 -4 6
-2 11 3 11 6 0 11 7 11 15 0 9 9 15 25 15 16 0 25 6 25 16 0 11 6 15 20 11 11
-3 20 -2 20 1 0 12 64 12 91 0z m341 -65 c40 -40 60 -73 44 -73 -15 0 -35 14
-30 21 3 5 -1 7 -8 4 -7 -3 -31 10 -53 29 -34 29 -38 36 -26 50 7 9 16 16 19
16 4 0 28 -21 54 -47z m-1462 13 c0 -9 -72 -148 -75 -145 -1 2 -8 21 -13 42
-10 37 -9 40 26 73 31 29 62 44 62 30z m2830 -155 c14 -27 13 -31 -7 -31 -18
0 -53 28 -53 42 0 17 50 8 60 -11z m-2163 -47 c-3 -3 -12 -4 -19 -1 -8 3 -5 6
6 6 11 1 17 -2 13 -5z m-487 -251 c-1 -25 -109 -165 -121 -157 -5 3 -9 17 -9
32 0 19 15 42 53 79 47 48 78 66 77 46z m-135 -210 c5 -20 -3 -39 -31 -82 -55
-84 -124 -171 -134 -171 -5 0 -12 11 -16 24 -7 29 8 60 89 183 63 97 77 104
92 46z m3529 -185 c26 -41 66 -161 60 -180 -5 -18 -7 -18 -24 -3 -30 27 -83
153 -76 180 8 31 21 32 40 3z m-3751 -512 c3 3 9 -11 12 -32 3 -22 13 -51 21
-66 36 -66 4 -86 -48 -29 -46 53 -58 100 -31 130 16 19 19 20 29 6 6 -8 14
-12 17 -9z m3683 -3 c-10 -10 -19 5 -10 18 6 11 8 11 12 0 2 -7 1 -15 -2 -18z
m-2956 -383 c-8 -5 -19 -10 -25 -10 -5 0 -3 5 5 10 8 5 20 10 25 10 6 0 3 -5
-5 -10z m-66 -51 c-16 -17 -38 -35 -49 -41 l-20 -10 20 19 c11 11 30 32 43 47
13 16 26 25 30 22 3 -3 -8 -20 -24 -37z m-116 -153 c-1 -1 -11 -8 -21 -15 -15
-12 -17 -12 -11 3 5 12 2 15 -9 10 -11 -4 -23 6 -38 29 -13 19 -39 45 -58 58
-20 13 -38 24 -40 26 -2 2 4 12 13 22 17 19 20 18 93 -55 41 -42 73 -76 71
-78z m-369 82 c-9 -16 -14 -19 -17 -9 -2 7 2 17 9 22 20 13 21 11 8 -13z
m3386 -66 c6 -16 -25 -93 -35 -87 -11 7 -23 101 -15 114 7 12 42 -6 50 -27z
m-3303 -49 c9 -10 25 -37 37 -60 12 -24 26 -43 31 -43 6 0 10 -6 10 -14 0 -8
5 -16 12 -18 7 -3 9 -12 4 -23 -6 -18 -10 -16 -34 15 -15 19 -46 56 -69 83
-43 48 -48 58 -36 70 11 12 29 8 45 -10z m351 -66 c24 15 47 13 47 -3 0 -19
-108 -134 -126 -134 -6 0 -17 7 -24 14 -9 12 -3 26 37 74 26 32 50 54 51 50 2
-4 9 -5 15 -1z m2565 -159 c-17 -25 -63 -46 -75 -34 -11 11 44 56 69 56 19 0
19 -2 6 -22z"/>
<path d="M1511 1824 c-169 -61 -264 -207 -248 -380 6 -57 34 -135 54 -147 5
-3 8 50 8 116 0 103 3 129 21 168 45 96 132 165 222 176 56 6 135 -10 174 -35
26 -17 26 -18 -50 -17 -67 0 -83 -4 -124 -28 -27 -16 -48 -31 -48 -34 0 -2 4
-2 10 2 5 3 25 -1 45 -9 61 -26 66 -81 11 -128 -27 -24 -89 -18 -120 12 -21
19 -24 19 -36 4 -22 -25 -24 -124 -6 -188 22 -75 100 -158 166 -177 140 -41
276 16 339 142 72 143 41 310 -79 429 -90 91 -237 131 -339 94z"/>
<path d="M3051 1821 c-114 -43 -171 -94 -232 -211 -20 -38 -23 -59 -23 -140 0
-135 41 -220 134 -280 70 -45 141 -57 211 -37 191 56 266 273 151 438 -73 104
-198 147 -291 100 -54 -28 -62 -22 -19 14 48 41 95 58 164 59 117 2 227 -83
271 -209 14 -37 18 -78 16 -160 l-1 -110 23 27 c77 90 44 314 -64 431 -79 86
-227 120 -340 78z m-21 -211 c44 -44 6 -120 -60 -120 -36 0 -80 35 -80 64 0
61 97 99 140 56z"/>
<path d="M2536 1095 c-8 -19 -30 -44 -48 -55 -97 -60 -175 -50 -250 31 -25 28
-51 48 -57 44 -20 -12 -12 -72 14 -103 41 -49 117 -75 200 -70 81 5 124 24
159 71 37 48 44 92 17 106 -18 10 -22 8 -35 -24z"/>
<path d="M2557 3783 c-11 -10 -8 -23 6 -23 6 1 26 7 42 15 l30 13 -36 1 c-20
1 -39 -2 -42 -6z"/>
<path d="M2940 3670 c56 -52 70 -57 50 -18 -22 41 -53 68 -79 68 -23 0 -21 -4
29 -50z"/>
<path d="M3067 3668 c17 -18 63 -80 102 -138 87 -129 90 -133 121 -152 25 -16
26 -15 110 63 88 81 95 102 36 102 -14 0 -26 3 -26 6 0 9 -71 43 -77 37 -3 -3
7 -21 23 -41 l27 -36 -37 -37 c-34 -34 -38 -36 -50 -19 -7 9 -18 17 -23 17 -5
0 -18 9 -28 20 -23 26 -9 62 36 89 32 19 30 23 -14 40 -21 8 -25 7 -21 -4 8
-19 -13 -55 -32 -55 -8 0 -24 21 -36 48 -22 50 -32 59 -88 79 -53 19 -57 16
-23 -19z"/>
<path d="M1720 3654 c-53 -29 -92 -64 -71 -64 27 0 98 -68 104 -100 4 -16 11
-30 17 -30 12 0 170 141 170 151 0 4 -18 9 -41 13 -23 4 -56 18 -73 31 -40 30
-49 30 -106 -1z m80 -45 c28 -24 33 -32 24 -47 -12 -18 -61 -29 -75 -15 -4 4
-11 27 -15 51 -6 37 -4 42 12 42 11 -1 35 -14 54 -31z"/>
<path d="M1351 3481 c-12 -16 -21 -35 -21 -42 0 -7 -7 -21 -16 -31 -16 -16
-15 -18 1 -25 19 -7 63 37 99 98 l17 29 -30 0 c-21 0 -35 -8 -50 -29z"/>
<path d="M3032 3412 c-15 -10 -5 -41 33 -101 14 -23 25 -55 25 -75 0 -19 7
-39 16 -47 15 -12 23 -7 64 40 l48 54 -31 16 c-18 9 -49 40 -71 69 -38 50 -57
61 -84 44z"/>
<path d="M1028 3218 c-41 -46 -80 -93 -87 -105 -10 -20 -9 -21 10 -18 12 3 37
9 55 15 33 11 34 12 19 40 -14 28 -14 30 14 50 30 21 77 87 69 96 -3 2 -39
-33 -80 -78z"/>
<path d="M462 1848 c5 -18 12 -41 15 -50 3 -10 0 -18 -6 -18 -11 0 -25 -28
-37 -75 -10 -39 8 -29 39 20 17 26 39 48 53 51 13 3 24 9 24 12 0 3 -16 25
-36 48 -44 54 -67 59 -52 12z"/>
<path d="M552 1699 c-113 -159 -121 -174 -128 -235 l-7 -59 49 65 c27 36 67
92 88 125 21 33 52 77 68 97 l29 37 -23 15 c-12 9 -25 16 -28 15 -3 0 -24 -27
-48 -60z"/>
<path d="M4420 1615 c-20 -21 -21 -28 -11 -52 16 -39 48 -79 56 -71 9 9 -5
148 -14 148 -4 0 -18 -11 -31 -25z"/>
<path d="M455 1283 c-4 -20 -16 -55 -27 -77 -17 -33 -19 -45 -10 -74 9 -29 8
-41 -5 -63 -19 -32 -12 -49 11 -27 27 28 96 131 96 145 0 7 9 17 19 21 18 6
16 11 -22 59 -23 29 -45 52 -48 52 -4 1 -10 -16 -14 -36z"/>
<path d="M4480 1218 c0 -6 -9 -22 -21 -34 l-21 -22 25 -37 25 -37 0 71 c0 39
-2 71 -4 71 -2 0 -4 -5 -4 -12z"/>
<path d="M387 553 c-11 -19 -16 -100 -7 -113 8 -13 10 -12 10 3 0 11 9 21 20
24 16 4 20 14 20 43 0 25 -5 40 -16 44 -20 8 -22 8 -27 -1z"/>
<path d="M395 380 c3 -5 11 -10 16 -10 6 0 7 5 4 10 -3 6 -11 10 -16 10 -6 0
-7 -4 -4 -10z"/>
<path d="M430 346 c0 -7 -25 -47 -55 -89 -30 -41 -55 -79 -55 -84 0 -4 -9 -19
-20 -33 -23 -29 -25 -53 -7 -69 16 -12 37 8 107 104 42 57 68 84 81 85 3 0 18
-11 33 -25 27 -25 28 -26 10 -53 -31 -48 -118 -145 -145 -161 -27 -16 -26 -17
49 -19 72 -2 76 -1 54 13 -27 20 -29 61 -3 74 22 12 32 4 54 -51 18 -42 37
-43 56 -2 10 22 8 28 -16 50 -24 23 -25 25 -10 42 10 10 17 34 17 53 0 29 -11
45 -70 107 -39 39 -73 72 -75 72 -3 0 -5 -6 -5 -14z"/>
<path d="M4479 268 c-43 -46 -79 -86 -79 -89 0 -3 20 -36 44 -73 l43 -66 27
40 c14 22 26 51 26 65 0 14 6 25 13 25 23 0 58 46 59 76 1 36 -27 104 -42 104
-6 0 -47 -37 -91 -82z"/>
<path d="M4188 77 c-25 -59 -23 -77 6 -77 36 0 51 66 24 103 -12 15 -15 12
-30 -26z"/>
<path d="M4593 40 l-42 -40 87 0 87 0 -30 20 c-16 10 -36 28 -45 39 -15 20
-16 19 -57 -19z"/>
<path d="M205 10 c-4 -6 6 -10 22 -10 22 0 25 2 13 10 -19 12 -27 12 -35 0z"/>
</g>
</svg>
