<?xml version="1.0" standalone="no"?>
<!DOCTYPE svg PUBLIC "-//W3C//DTD SVG 20010904//EN"
 "http://www.w3.org/TR/2001/REC-SVG-20010904/DTD/svg10.dtd">
<svg version="1.0" xmlns="http://www.w3.org/2000/svg"
 width="787.000000pt" height="805.000000pt" viewBox="0 0 787.000000 805.000000"
 preserveAspectRatio="xMidYMid meet">

<g transform="translate(0.000000,805.000000) scale(0.100000,-0.100000)"
fill="#000000" stroke="none">
<path d="M4108 7647 c-34 -27 -47 -62 -41 -105 7 -42 -1 -51 -122 -138 -138
-100 -164 -124 -171 -162 -3 -18 -10 -35 -15 -38 -12 -7 -12 -141 0 -148 4 -3
11 -18 14 -33 7 -34 87 -126 136 -158 33 -20 39 -30 55 -100 16 -66 17 -100
11 -234 -5 -106 -12 -162 -21 -176 -18 -26 -18 -76 1 -101 17 -22 20 -70 5
-79 -5 -3 -10 -22 -10 -41 0 -67 -8 -72 -108 -66 -61 3 -91 1 -96 -7 -4 -6
-15 -11 -24 -11 -10 0 -44 -13 -75 -30 -32 -16 -65 -30 -74 -30 -9 0 -41 -14
-70 -31 -41 -23 -75 -32 -139 -40 -102 -11 -160 -33 -219 -82 -63 -53 -85
-100 -85 -184 0 -80 27 -131 81 -153 28 -12 36 -11 63 4 116 68 184 84 285 66
136 -24 289 -165 321 -296 40 -169 47 -212 76 -471 4 -38 17 -69 48 -117 24
-36 51 -92 61 -123 10 -32 21 -62 25 -68 4 -5 11 -35 15 -65 4 -30 10 -71 15
-90 12 -49 27 -128 35 -175 l7 -40 21 40 c22 39 22 47 20 478 -1 240 2 435 7
432 5 -3 19 -1 32 4 l23 9 -2 -477 c-2 -262 -4 -501 -5 -531 l-3 -55 45 -3
c28 -2 72 6 115 21 l70 24 6 369 c7 386 17 517 50 671 54 252 117 348 281 435
36 19 59 22 143 23 96 0 102 -1 151 -32 57 -37 81 -40 124 -18 89 46 98 184
18 297 -29 42 -124 91 -190 99 -31 4 -77 16 -102 28 -24 12 -75 31 -113 41
-37 11 -80 29 -95 40 -48 35 -108 50 -210 50 l-98 0 -5 28 c-3 15 -12 50 -19
79 -12 50 -12 53 8 66 17 12 21 25 21 71 0 44 -4 60 -17 67 -14 8 -16 19 -12
57 3 26 1 101 -4 167 -6 78 -6 124 0 132 6 7 8 33 6 58 l-3 46 57 31 c58 31
109 83 144 148 14 27 19 56 19 126 0 79 -3 95 -24 125 -25 37 -126 118 -197
159 -24 14 -55 36 -70 49 -24 21 -26 27 -20 75 7 49 5 55 -22 84 -38 40 -93
44 -134 9z m66 -50 c8 -14 8 -20 -4 -27 -27 -18 -50 -12 -50 13 0 41 32 49 54
14z m1 -87 c-3 -5 -12 -10 -20 -10 -8 0 -17 5 -20 10 -4 6 5 10 20 10 15 0 24
-4 20 -10z m-75 -88 c0 -5 -20 -22 -45 -40 -25 -17 -45 -38 -45 -46 0 -9 -21
-39 -46 -67 l-46 -52 5 -63 c5 -65 35 -136 85 -201 33 -44 12 -42 -27 2 -59
68 -85 132 -85 215 -1 111 43 183 144 236 49 25 60 28 60 16z m263 -81 c37
-42 67 -120 67 -178 0 -53 -47 -164 -87 -205 -45 -47 -64 -50 -31 -5 114 148
115 303 5 410 -42 41 -46 47 -21 34 17 -9 47 -34 67 -56z m-152 2 c67 -71 82
-108 83 -203 0 -82 -1 -87 -38 -147 -22 -35 -43 -63 -49 -63 -5 0 -6 8 -1 18
40 91 56 160 51 219 -6 57 -34 134 -55 147 -5 3 -28 -1 -53 -8 -66 -20 -82
-53 -81 -172 0 -90 2 -99 31 -146 18 -28 29 -53 26 -56 -11 -11 -44 31 -71 91
-40 90 -40 191 0 265 28 51 75 91 106 92 9 0 32 -17 51 -37z m-337 -100 c-1
-32 -10 -77 -19 -100 -21 -51 -11 -91 42 -168 l34 -50 -50 54 c-53 57 -81 120
-81 180 0 44 31 115 57 130 10 6 18 11 18 11 1 0 0 -26 -1 -57z m300 -58 c0
-58 -4 -79 -19 -95 l-19 -21 -13 23 c-21 39 -16 131 8 162 31 40 44 19 43 -69z
m337 -4 c17 -75 -33 -193 -102 -242 l-34 -23 32 37 c62 72 78 113 78 209 0 87
9 94 26 19z m-311 -340 c48 -8 47 -10 -47 -36 -89 -25 -165 -10 -150 29 5 13
22 16 79 15 40 0 93 -4 118 -8z m60 -111 c-8 -5 -28 -10 -45 -10 -30 0 -57
-12 -56 -24 3 -18 -2 -25 -36 -49 l-38 -27 95 -1 c94 -1 88 -15 -7 -18 -50 -1
-60 -12 -32 -37 l21 -19 -23 -5 c-12 -3 -24 -11 -26 -17 -3 -9 19 -13 74 -15
l78 -3 -78 -18 c-62 -15 -78 -22 -75 -35 2 -12 19 -20 56 -26 60 -10 70 -24
15 -21 -21 1 -54 -2 -73 -6 -19 -5 -45 -6 -57 -3 -21 6 -22 11 -21 111 0 95 2
106 20 111 18 4 18 5 -2 27 -13 14 -20 33 -18 47 3 20 11 24 73 34 92 15 175
17 155 4z m38 -396 c12 -2 22 -8 22 -13 0 -8 -41 -16 -165 -31 -33 -4 -67 -10
-76 -14 -9 -4 -21 -1 -29 9 -7 8 -21 15 -31 15 -18 0 -27 29 -13 43 7 7 252
-1 292 -9z m-208 -104 c12 -7 7 -12 -20 -24 -35 -15 -47 -9 -36 19 6 17 34 19
56 5z m142 -72 c58 -31 120 -99 105 -115 -4 -3 -30 8 -58 25 -71 45 -118 51
-166 21 -21 -13 -40 -26 -43 -31 -11 -14 -90 -19 -90 -6 1 36 129 135 179 137
7 1 40 -13 73 -31z m-5 -140 c39 -20 93 -60 133 -98 64 -62 67 -68 74 -123 4
-32 4 -88 1 -125 -7 -65 -9 -68 -64 -120 -31 -29 -74 -62 -96 -73 -22 -11 -57
-40 -77 -64 l-37 -45 -22 36 c-13 22 -38 44 -62 54 -51 23 -141 128 -162 188
-8 25 -15 62 -15 81 0 52 45 162 86 210 35 40 135 109 162 110 8 1 43 -14 79
-31z m-329 -14 c12 -8 22 -19 22 -23 0 -5 -33 -11 -72 -13 -65 -3 -78 -8 -125
-41 -53 -39 -77 -80 -89 -157 -13 -80 56 -203 137 -246 17 -8 61 -18 97 -21
l67 -6 105 -125 c58 -69 110 -127 116 -129 7 -2 65 47 130 109 113 108 123
115 82 56 -10 -14 -18 -36 -18 -47 0 -20 -59 -85 -144 -158 -53 -45 -64 -47
-80 -15 -8 15 -23 36 -33 47 -10 11 -31 38 -48 60 -16 22 -37 49 -47 59 -10
11 -27 43 -39 72 -20 47 -25 52 -38 40 -43 -36 -95 -26 -177 35 -72 53 -118
110 -137 170 -47 145 14 285 143 329 67 24 118 25 148 4z m698 -12 c58 -29
118 -106 138 -176 15 -51 16 -66 5 -105 -24 -90 -94 -167 -193 -216 -52 -25
-62 -27 -109 -18 -59 11 -49 19 35 28 72 8 141 51 184 117 73 108 45 253 -61
318 -27 17 -57 24 -121 28 -59 3 -84 9 -84 18 0 37 137 41 206 6z m-1079 -145
c-80 -78 -98 -103 -106 -157 -5 -29 -11 -36 -34 -38 -32 -4 -34 10 -13 80 18
61 68 131 112 159 49 30 108 50 112 38 2 -5 -30 -42 -71 -82z m1310 47 c50
-29 82 -68 117 -144 27 -58 33 -95 16 -105 -19 -12 -39 16 -50 72 -10 45 -20
63 -59 101 -27 26 -62 57 -79 70 -66 48 -26 52 55 6z m-947 12 c0 -7 -9 -16
-20 -19 -11 -3 -20 -9 -19 -14 1 -4 1 -21 0 -38 -1 -26 -5 -30 -31 -31 -16 -1
-27 2 -25 6 7 12 -23 33 -35 25 -7 -4 -10 -16 -7 -26 3 -11 0 -32 -6 -48 -13
-36 15 -95 56 -117 15 -8 39 -20 54 -28 42 -22 40 -36 -4 -36 -46 0 -70 15
-107 69 -75 108 -41 226 75 259 49 15 69 14 69 -2z m670 -18 c55 -38 73 -70
73 -132 0 -73 -35 -129 -99 -158 -43 -18 -74 -19 -74 -1 0 4 19 16 41 27 52
24 99 87 99 133 0 19 -7 48 -16 66 -16 31 -17 31 -25 9 -6 -15 -17 -22 -34
-22 -35 0 -44 27 -14 48 l23 16 -40 17 -39 18 36 0 c22 1 49 -8 69 -21z
m-1190 -34 c0 -14 -44 -83 -50 -79 -4 2 -16 -2 -26 -10 -15 -11 -17 -16 -6
-26 6 -7 12 -22 12 -33 0 -20 0 -20 -15 1 -16 22 -38 21 -80 -4 -16 -9 -17
-14 -6 -27 7 -8 21 -18 32 -21 25 -8 24 -17 -6 -49 -30 -32 -39 -32 -70 -1
-19 18 -25 35 -25 70 0 39 5 51 41 90 22 24 51 47 62 51 12 4 33 15 46 25 22
18 91 27 91 13z m1707 -40 c82 -56 117 -150 73 -194 -25 -25 -31 -25 -64 1
-34 27 -33 42 2 35 15 -3 34 -2 42 4 13 8 13 13 0 37 -17 30 -53 41 -75 23
-18 -15 -31 6 -15 25 15 18 6 45 -14 45 -15 0 -36 29 -36 49 0 21 35 11 87
-25z m-1531 -45 c-18 -36 -23 -75 -6 -49 8 12 10 10 10 -10 0 -14 3 -35 6 -47
9 -33 -40 -44 -68 -15 -18 18 -19 24 -8 57 12 36 68 110 77 101 3 -3 -2 -19
-11 -37z m1007 2 c2 -10 0 -27 -6 -37 -10 -17 -11 -16 -18 10 -5 16 -6 33 -3
38 9 14 21 9 27 -11z m-740 -5 c19 -15 22 -32 7 -41 -15 -9 -40 14 -40 36 0
22 8 23 33 5z m1016 -12 c26 -34 34 -60 27 -90 -5 -19 -13 -24 -36 -24 -33 0
-40 19 -15 44 19 18 19 30 0 66 -19 37 -4 39 24 4z m-322 -86 c-3 -20 -4 -21
-11 -5 -5 9 -5 29 0 45 7 25 8 26 11 5 3 -13 3 -33 0 -45z m-647 7 c0 -15 -6
-25 -14 -25 -22 0 -30 19 -16 35 18 22 30 18 30 -10z m95 -382 c47 -50 59 -71
85 -148 46 -141 61 -342 41 -560 l-6 -70 -49 95 -49 95 -18 185 c-11 123 -27
227 -48 311 -17 69 -31 131 -31 137 0 23 20 11 75 -45z m469 -35 c-4 -18 -15
-62 -25 -98 -35 -118 -50 -242 -56 -460 -6 -228 -12 -264 -39 -253 -9 3 -20 0
-24 -8 -20 -31 -25 13 -22 194 5 325 36 544 83 592 12 12 11 3 0 -28 -18 -46
-31 -182 -25 -242 l7 -60 14 80 c15 94 52 260 64 293 13 34 29 27 23 -10z"/>
<path d="M4140 5963 c-67 -22 -96 -46 -122 -102 -14 -31 -18 -54 -13 -79 16
-88 89 -172 149 -172 74 0 155 99 156 190 0 33 3 41 10 30 35 -55 -21 -210
-90 -249 -54 -30 -91 -27 -141 12 -38 29 -88 106 -104 160 -4 15 -8 16 -25 7
-27 -15 -26 -62 4 -126 42 -90 144 -162 214 -150 89 14 202 133 215 225 10 76
-10 119 -90 194 -64 59 -77 67 -110 66 -21 0 -45 -3 -53 -6z m75 -94 c19 -17
35 -35 35 -40 0 -5 -9 0 -20 11 -11 11 -26 20 -32 20 -15 0 -57 -89 -65 -137
-3 -18 -10 -32 -16 -30 -21 7 -49 55 -54 94 -4 35 -1 45 27 76 41 47 76 49
125 6z"/>
<path d="M3977 5170 c3 -11 7 -20 9 -20 2 0 4 9 4 20 0 11 -4 20 -9 20 -5 0
-7 -9 -4 -20z"/>
<path d="M4015 4759 c6 -33 15 -36 15 -6 0 15 -4 27 -9 27 -6 0 -8 -10 -6 -21z"/>
<path d="M4031 4634 c0 -11 3 -14 6 -6 3 7 2 16 -1 19 -3 4 -6 -2 -5 -13z"/>
<path d="M5807 5874 c-3 -3 -25 -10 -49 -15 -140 -30 -302 -177 -368 -335 -12
-27 -25 -58 -30 -69 -21 -50 -25 -188 -25 -900 0 -536 4 -779 12 -825 24 -134
34 -167 76 -260 66 -148 216 -322 337 -393 284 -165 635 -185 939 -54 207 90
353 226 442 412 66 138 84 260 58 387 -23 112 -103 233 -182 275 -100 53 -182
64 -258 35 -122 -46 -179 -127 -179 -252 0 -53 5 -74 23 -100 32 -48 69 -72
120 -77 38 -5 54 -1 91 21 53 31 66 51 66 103 -1 65 -60 116 -102 90 -13 -8
-38 -17 -55 -21 -32 -5 -33 -4 -33 27 2 113 146 166 267 97 56 -32 97 -79 108
-123 4 -15 11 -30 16 -33 5 -3 9 -42 9 -87 -1 -202 -112 -356 -335 -462 -82
-39 -114 -50 -200 -66 -27 -6 -69 -14 -93 -20 -128 -28 -320 8 -472 88 -80 42
-193 139 -242 207 -49 70 -94 186 -107 280 -15 107 -15 1646 0 1716 7 33 22
62 44 85 28 30 39 35 80 35 86 0 155 -62 155 -140 0 -53 60 -5 199 159 l44 52
-24 25 c-77 82 -296 174 -332 138z"/>
<path d="M6519 5838 c-7 -13 -45 -58 -85 -100 -41 -43 -74 -85 -74 -93 0 -8
22 -31 49 -50 27 -20 69 -59 94 -89 l46 -53 105 105 105 105 -101 98 c-55 55
-107 99 -114 99 -7 0 -19 -10 -25 -22z"/>
<path d="M2023 5831 c-34 -9 -65 -19 -69 -23 -4 -5 -15 -8 -25 -8 -9 0 -56
-20 -104 -45 -161 -84 -284 -205 -353 -348 -61 -125 -66 -151 -67 -302 l0
-140 41 -92 c101 -226 170 -280 709 -558 318 -164 414 -248 476 -417 50 -137
2 -327 -115 -456 -52 -57 -233 -172 -271 -172 -12 0 -26 -5 -33 -12 -16 -16
-262 -23 -327 -10 -154 32 -228 61 -309 122 -120 89 -197 186 -242 305 -23 62
-25 81 -22 165 4 112 28 170 96 237 51 50 148 106 210 123 63 16 192 14 257
-5 53 -16 58 -16 76 1 25 23 24 27 -13 45 -100 49 -111 52 -250 47 -76 -3
-146 -10 -163 -18 -102 -43 -146 -70 -190 -116 -65 -68 -88 -100 -113 -154
-49 -111 -54 -132 -54 -255 1 -107 4 -130 31 -212 42 -128 101 -222 201 -324
116 -118 196 -167 366 -225 74 -26 90 -28 259 -28 172 -1 184 0 265 28 162 54
278 125 389 236 38 38 83 89 100 113 89 129 139 292 148 477 5 96 3 113 -22
190 -35 107 -57 151 -108 220 -63 85 -105 126 -197 194 -91 68 -120 85 -330
194 -280 145 -389 212 -451 279 -108 117 -142 282 -85 417 29 71 124 172 200
215 210 119 477 85 665 -85 60 -55 121 -154 121 -197 0 -11 5 -35 12 -53 9
-26 8 -47 -5 -107 -23 -106 -43 -136 -113 -174 -91 -48 -157 -41 -238 26 -25
21 -58 95 -50 115 8 21 37 28 68 16 51 -19 105 -12 131 16 39 42 34 88 -14
134 -62 59 -141 62 -222 7 -46 -31 -89 -116 -89 -176 1 -92 70 -190 168 -238
49 -24 69 -28 142 -27 106 0 152 13 231 67 303 205 206 725 -172 917 -63 32
-138 59 -222 79 -67 16 -250 12 -324 -8z m-512 -507 c-10 -27 -21 -62 -25 -79
-6 -25 -5 -28 6 -17 7 7 18 27 25 45 10 28 12 16 12 -90 1 -115 11 -170 47
-258 7 -18 6 -18 -9 -7 -9 8 -23 36 -32 63 -14 41 -19 48 -31 38 -8 -6 -14
-22 -14 -36 0 -28 35 -115 64 -158 l20 -30 -26 23 c-70 63 -123 268 -99 383
12 55 68 186 76 177 2 -2 -4 -26 -14 -54z"/>
<path d="M7283 5528 c-6 -13 -17 -39 -26 -59 -17 -39 -83 -98 -132 -117 -99
-39 -142 -43 -494 -42 -193 0 -386 6 -437 12 -86 10 -95 10 -146 -11 -34 -14
-71 -40 -99 -69 -44 -46 -89 -106 -89 -117 0 -6 -4 -12 -50 -66 -16 -20 -30
-43 -30 -50 0 -12 94 -14 577 -11 328 2 594 7 614 13 54 14 178 98 231 158 76
85 136 269 114 355 -8 32 -19 33 -33 4z"/>
<path d="M3376 5364 c-28 -28 -36 -52 -30 -91 8 -56 -9 -72 -81 -75 -52 -3
-60 -6 -63 -23 -2 -15 10 -32 40 -55 24 -19 68 -58 99 -87 l56 -53 42 47 c24
27 68 74 99 106 l56 57 -94 95 c-52 52 -98 95 -102 95 -3 0 -14 -7 -22 -16z"/>
<path d="M4920 5352 c-13 -11 -23 -33 -27 -60 -7 -50 -24 -65 -95 -83 -61 -15
-63 -35 -5 -87 23 -22 65 -60 92 -85 28 -26 52 -47 55 -47 3 0 49 44 103 98
l97 97 -86 93 c-47 50 -92 92 -99 92 -7 0 -23 -8 -35 -18z"/>
<path d="M5060 4891 c-19 -16 -60 -42 -90 -59 -30 -16 -73 -39 -94 -52 -22
-12 -63 -24 -91 -27 -45 -5 -96 -27 -84 -36 2 -2 25 -18 50 -35 39 -26 47 -38
51 -69 10 -80 -2 -1218 -14 -1288 -14 -85 -38 -136 -78 -165 -32 -23 -40 -50
-15 -50 9 0 46 15 83 34 47 23 107 71 199 155 l132 122 3 727 c2 400 1 737 -1
750 -4 28 -8 28 -51 -7z"/>
<path d="M7130 4890 c-19 -16 -42 -29 -50 -30 -9 0 -22 -6 -28 -12 -10 -10
-132 -14 -530 -15 -479 -3 -522 -4 -582 -22 -36 -11 -81 -23 -100 -28 -47 -12
-47 -33 0 -66 23 -15 45 -39 50 -53 6 -15 10 -261 10 -625 0 -405 3 -599 10
-599 40 0 179 87 253 158 l47 46 0 178 0 178 43 1 c80 2 92 10 155 96 33 45
83 106 111 137 28 31 51 61 51 66 0 6 -63 10 -164 10 -90 0 -171 3 -180 6 -13
5 -16 23 -16 94 l0 88 33 6 c17 4 120 4 227 0 110 -3 239 -1 297 4 93 9 107
14 157 47 83 55 210 195 251 277 19 39 32 74 29 79 -10 17 -40 9 -74 -21z
m-1110 -195 c66 -34 69 -125 4 -125 -17 0 -26 10 -38 47 -18 54 -21 93 -6 93
6 0 24 -7 40 -15z"/>
<path d="M3289 4856 c-3 -3 -39 -10 -80 -16 -44 -6 -95 -21 -127 -37 l-53 -28
-101 -203 c-89 -178 -99 -205 -86 -218 12 -13 19 -10 56 25 52 50 155 108 234
132 80 25 208 25 264 0 84 -38 160 -136 152 -194 -3 -20 -11 -23 -92 -29 -96
-7 -125 -16 -201 -62 -68 -41 -89 -59 -168 -140 -66 -68 -68 -70 -49 -85 40
-31 52 -85 52 -227 0 -152 -5 -168 -70 -239 -42 -46 -43 -50 -23 -53 23 -3 44
11 190 130 85 68 218 156 249 164 22 6 22 6 4 38 -11 17 -22 57 -26 88 -7 57
-6 58 22 68 16 6 65 15 108 20 76 9 80 9 95 -13 9 -12 24 -45 33 -73 24 -72
84 -168 137 -223 180 -184 472 -204 668 -45 91 74 173 252 188 409 7 76 -12
191 -40 246 -25 47 -34 25 -28 -69 7 -105 -10 -164 -64 -230 -41 -50 -128
-109 -173 -119 -17 -3 -33 -10 -36 -14 -9 -15 -122 -10 -172 7 -68 22 -122 63
-165 124 -42 61 -62 122 -107 335 -32 152 -78 272 -132 342 -65 86 -191 160
-297 175 -121 17 -156 20 -162 14z"/>
<path d="M1874 4071 c-129 -44 -214 -153 -214 -277 0 -100 44 -164 147 -218
54 -27 156 -22 228 13 33 15 70 39 82 52 38 42 63 109 63 175 0 128 -65 227
-172 258 -67 19 -70 19 -134 -3z m109 -172 c12 -6 34 -23 50 -37 24 -23 27
-33 27 -87 0 -64 -5 -73 -57 -102 -32 -18 -113 -15 -148 6 -123 72 -83 230 58
231 27 0 58 -5 70 -11z"/>
<path d="M2970 3955 c-7 -9 -8 -15 -2 -15 5 0 12 7 16 15 3 8 4 15 2 15 -2 0
-9 -7 -16 -15z"/>
<path d="M3302 3428 c-96 -101 -131 -143 -132 -156 0 -12 189 -202 200 -202 3
1 21 21 40 46 19 25 64 73 99 106 l64 61 -101 98 c-55 55 -105 99 -110 99 -6
0 -32 -24 -60 -52z"/>
<path d="M3895 3431 c-6 -11 3 -1875 10 -1911 3 -14 10 -88 15 -165 10 -133
23 -224 52 -360 7 -33 16 -64 19 -70 4 -5 10 -31 13 -57 4 -26 11 -50 16 -53
4 -3 11 -24 15 -47 4 -23 11 -49 15 -58 5 -8 31 -84 58 -169 58 -178 47 -181
123 26 52 143 109 343 135 473 49 251 48 211 51 1323 3 940 2 1047 -12 1047
-8 0 -38 -11 -67 -25 -28 -14 -69 -25 -89 -25 -21 0 -41 -5 -45 -11 -4 -6 -8
-485 -11 -1063 -2 -578 -6 -1116 -10 -1195 -7 -167 1 -177 54 -70 28 54 32 59
27 29 -3 -19 -10 -48 -15 -65 -5 -16 -12 -55 -15 -85 -3 -30 -9 -59 -12 -65
-4 -5 -12 -41 -19 -80 -16 -101 -27 -138 -40 -142 -7 -3 -14 11 -18 34 -4 21
-31 126 -61 233 -61 216 -89 380 -103 605 -6 83 -13 552 -17 1043 -7 841 -8
894 -25 902 -22 12 -36 13 -44 1z"/>
<path d="M4050 3373 c0 -5 5 -61 10 -126 5 -65 12 -495 15 -955 5 -795 10
-951 35 -1137 10 -72 28 -123 31 -84 1 7 0 525 -1 1149 -1 765 -5 1139 -12
1148 -11 13 -78 17 -78 5z"/>
<path d="M4015 3349 c-4 -5 -4 -22 0 -37 l8 -27 7 25 c5 14 8 31 9 38 1 15
-15 16 -24 1z"/>
<path d="M4016 3221 c-4 -7 -5 -15 -2 -18 9 -9 19 4 14 18 -4 11 -6 11 -12 0z"/>
<path d="M3383 2931 c-47 -18 -123 -76 -123 -93 0 -6 -7 -19 -16 -29 -14 -15
-23 -74 -24 -162 l0 -28 -87 47 c-49 26 -97 55 -108 64 -11 10 -47 26 -80 35
-33 10 -70 22 -83 28 -30 14 -245 15 -263 1 -8 -5 -48 -23 -89 -39 -68 -25
-86 -39 -183 -135 -93 -92 -107 -110 -102 -131 3 -13 -1 -41 -10 -63 -14 -33
-14 -48 -4 -114 12 -71 16 -80 67 -136 31 -34 80 -82 111 -109 112 -95 309
-139 482 -107 67 13 174 64 259 123 l64 46 13 -31 c7 -17 13 -50 13 -75 0 -50
37 -139 69 -165 42 -35 99 -57 168 -63 117 -12 186 25 230 122 28 66 29 82 2
166 -17 54 -26 69 -51 82 -40 19 -63 19 -118 -3 -73 -28 -88 -40 -95 -74 -4
-18 -12 -39 -18 -46 -5 -7 -7 -36 -4 -69 7 -66 -4 -93 -38 -93 -88 0 -133 187
-63 265 45 52 208 129 335 158 99 24 175 58 155 71 -23 14 -181 65 -222 71
-25 4 -49 11 -55 15 -5 5 -30 16 -55 26 -84 32 -149 83 -175 135 -53 103 -11
216 87 234 36 7 37 6 43 -29 4 -20 5 -45 2 -57 -3 -11 -1 -50 4 -87 7 -55 14
-71 36 -89 36 -29 101 -38 160 -23 63 15 76 26 62 52 -8 15 -6 31 11 70 15 36
20 60 15 87 -8 50 -39 99 -70 111 -14 5 -25 13 -25 17 0 15 -97 43 -141 42
-24 -1 -63 -9 -86 -18z m207 -76 c7 -8 16 -13 20 -10 12 8 19 -32 21 -123 1
-71 -1 -85 -17 -97 -18 -14 -72 -11 -84 4 -3 3 -14 11 -25 17 -33 18 -46 54
-42 121 4 77 24 103 77 103 21 0 43 -7 50 -15z m-696 -150 c33 -13 144 -72
246 -130 239 -136 378 -193 475 -196 35 -1 42 2 -107 -43 -48 -15 -90 -31 -93
-36 -3 -5 -49 -30 -103 -56 -53 -26 -99 -50 -102 -53 -9 -10 -97 -51 -110 -51
-14 0 -83 -48 -88 -62 -2 -4 -20 -10 -40 -14 -20 -4 -42 -11 -48 -16 -16 -12
-156 -38 -205 -38 -94 0 -210 41 -279 99 -129 109 -159 161 -162 281 -1 71 2
84 26 120 31 47 164 155 223 182 117 52 257 57 367 13z m716 -623 c19 -15 22
-27 20 -77 -1 -33 -1 -71 -1 -84 1 -34 -25 -71 -50 -71 -11 0 -40 14 -65 31
-73 53 -82 129 -22 189 35 35 83 40 118 12z"/>
<path d="M2640 2557 c-32 -16 -50 -52 -50 -104 0 -58 17 -62 39 -9 21 49 37
61 94 71 20 4 37 11 37 15 0 27 -83 46 -120 27z"/>
<path d="M2885 2535 c-14 -13 -25 -33 -25 -43 0 -27 43 -67 96 -89 43 -18 57
-33 30 -33 -7 0 -16 -8 -19 -19 -3 -12 -17 -21 -40 -25 -24 -4 -43 -17 -58
-37 -21 -29 -21 -31 -3 -51 22 -23 64 -47 108 -59 l29 -9 -27 29 c-22 23 -27
36 -24 67 l3 39 110 7 c126 8 319 27 353 35 38 9 25 31 -22 38 -25 4 -50 4
-56 0 -11 -7 -39 2 -107 31 -17 8 -38 14 -46 14 -9 0 -19 5 -22 10 -3 6 -21
10 -40 10 -19 0 -37 -4 -40 -10 -3 -5 -27 -10 -53 -10 -34 0 -55 6 -77 24
l-30 24 18 36 c22 47 22 46 -8 46 -14 0 -37 -11 -50 -25z"/>
<path d="M2426 2458 c-20 -32 -30 -94 -17 -102 6 -4 11 -16 11 -26 0 -10 11
-32 24 -47 24 -28 25 -28 40 -8 21 28 20 64 -4 103 -24 40 -24 38 0 45 14 3
20 14 20 31 0 22 -4 26 -30 26 -20 0 -34 -7 -44 -22z"/>
<path d="M2750 2415 c-7 -8 -19 -15 -27 -15 -8 0 -12 -4 -9 -9 4 -5 1 -11 -5
-13 -6 -2 11 -14 37 -27 29 -15 49 -20 51 -14 2 6 13 9 24 6 10 -3 26 0 33 6
12 10 9 18 -22 47 -39 37 -63 42 -82 19z m61 -12 c13 -16 12 -17 -3 -4 -17 13
-22 21 -14 21 2 0 10 -8 17 -17z m29 -47 c-7 -7 -13 -7 -20 0 -6 6 -3 10 10
10 13 0 16 -4 10 -10z"/>
<path d="M2612 2317 c-7 -8 -14 -39 -14 -67 -1 -44 2 -55 23 -70 13 -10 34
-21 47 -23 41 -8 124 20 156 52 34 35 29 54 -6 21 -18 -16 -31 -20 -58 -16
-107 15 -120 24 -129 83 -5 31 -8 34 -19 20z"/>
<path d="M4745 2938 c-37 -21 -80 -61 -98 -91 -15 -23 -18 -50 -18 -124 1
-140 16 -160 124 -162 124 -3 193 93 162 224 -8 33 -14 66 -15 73 0 17 46 15
75 -4 21 -14 28 -14 43 -3 15 13 16 12 4 -3 -11 -14 -10 -18 10 -29 20 -11 22
-10 10 3 -10 13 -10 17 1 21 11 4 13 -2 11 -23 -2 -16 1 -32 6 -35 6 -4 8 -11
5 -16 -4 -5 -1 -9 4 -9 21 0 11 -81 -16 -136 -30 -61 -51 -80 -133 -117 -61
-27 -187 -67 -210 -67 -17 0 -98 -29 -145 -51 -16 -8 -30 -21 -30 -29 0 -20
59 -48 129 -61 88 -16 200 -56 270 -97 114 -67 126 -83 126 -174 0 -48 -5 -69
-22 -94 -32 -47 -61 -61 -92 -44 -23 12 -25 18 -24 79 1 56 -3 75 -28 120 -38
70 -76 91 -164 91 -99 -1 -97 3 -102 -183 -2 -64 1 -100 8 -105 6 -4 14 -16
18 -27 3 -11 23 -31 43 -45 34 -23 45 -25 137 -24 115 2 161 17 208 67 50 53
68 103 68 190 l0 78 33 -24 c53 -40 160 -96 238 -124 68 -25 87 -27 219 -28
l145 0 70 36 c94 49 183 116 236 178 24 28 49 51 55 51 12 0 44 32 44 43 0 16
-29 5 -43 -15 -12 -18 -11 -8 4 47 20 72 19 157 -2 214 l-10 25 27 -27 c56
-56 202 -73 273 -31 33 19 53 56 45 79 -10 24 -31 18 -71 -21 l-37 -36 -76 4
c-92 6 -155 37 -232 112 -82 80 -166 133 -266 167 -73 24 -185 34 -237 20 -22
-5 -62 -16 -90 -23 -27 -6 -63 -20 -80 -29 -16 -10 -50 -28 -75 -41 -25 -12
-58 -32 -75 -44 -29 -21 -79 -39 -71 -26 2 4 -2 45 -9 92 -13 79 -17 87 -52
118 -36 33 -73 52 -157 86 -45 18 -142 21 -171 4z m93 -94 c19 -22 22 -36 22
-109 l0 -84 -32 -17 c-27 -14 -37 -15 -67 -4 -52 18 -59 26 -71 86 -27 127 73
214 148 128z m870 -123 c95 -25 173 -71 251 -151 71 -73 89 -105 97 -185 11
-101 -42 -191 -170 -284 -90 -65 -127 -78 -246 -88 -105 -8 -243 28 -350 93
-14 8 -65 35 -115 60 -78 39 -127 64 -210 107 -77 40 -140 61 -255 83 -75 15
-73 16 36 39 133 27 201 51 314 112 231 125 262 142 275 153 8 6 49 27 92 46
93 40 169 45 281 15z m-918 -626 c51 -26 70 -61 70 -127 0 -63 -12 -98 -35
-98 -7 0 -15 -4 -17 -10 -5 -14 -77 13 -92 36 -42 64 -45 164 -5 197 26 21 41
21 79 2z"/>
<path d="M5625 2563 c-24 -6 -45 -22 -45 -34 0 -4 16 -11 35 -15 34 -6 65 -39
65 -69 0 -9 11 -31 25 -49 14 -18 22 -36 18 -40 -4 -4 1 -4 12 0 30 11 36 27
18 47 -10 10 -19 13 -23 7 -3 -5 -5 14 -4 42 3 54 -19 108 -42 108 -7 0 -18 2
-26 4 -7 2 -22 1 -33 -1z"/>
<path d="M5376 2512 c6 -44 4 -50 -20 -65 -31 -21 -46 -21 -82 -2 -35 18 -74
12 -124 -20 -43 -27 -121 -55 -154 -55 -13 0 -38 -6 -56 -13 -31 -14 -29 -14
69 -25 56 -7 117 -12 136 -12 19 0 50 -7 68 -16 33 -16 35 -16 56 5 20 20 23
20 58 6 58 -24 64 -42 33 -92 -23 -39 -14 -41 48 -13 l44 20 37 -30 c84 -68
202 -67 237 1 18 35 18 93 0 108 -11 9 -19 1 -40 -43 -23 -47 -32 -56 -60 -62
-46 -8 -125 27 -152 69 -12 17 -42 42 -67 55 -26 13 -49 28 -53 33 -3 6 -17
14 -30 19 -31 12 -31 25 1 28 13 1 41 11 62 22 21 11 43 20 49 20 7 0 15 7 18
16 19 49 -8 94 -58 94 -26 0 -27 -1 -20 -48z"/>
<path d="M5834 2455 c-5 -19 0 -30 17 -44 l22 -18 -21 -35 c-27 -43 -29 -78
-4 -78 25 0 36 10 62 58 17 29 33 45 54 51 17 5 23 10 14 10 -29 2 -32 3 -61
43 -33 46 -73 53 -83 13z"/>
<path d="M5506 2407 c-41 -33 -32 -59 24 -69 36 -6 50 -4 69 10 32 24 37 40
14 49 -10 4 -24 13 -31 20 -20 19 -43 16 -76 -10z"/>
<path d="M2066 2681 c-11 -12 -16 -31 -14 -53 4 -44 37 -50 66 -13 12 15 26
24 32 20 21 -13 9 34 -12 49 -30 21 -51 20 -72 -3z"/>
<path d="M6212 2688 c-30 -30 3 -98 49 -98 34 0 52 28 43 65 -10 40 -65 60
-92 33z"/>
<path d="M1915 2554 c-17 -17 -13 -49 10 -73 23 -24 111 -41 148 -29 40 14
107 58 107 70 0 5 -3 8 -7 6 -57 -29 -109 -48 -129 -48 -16 0 -40 16 -69 45
-40 42 -45 44 -60 29z"/>
<path d="M1763 2443 c-25 -5 -35 -24 -22 -44 10 -17 249 -27 249 -10 0 15 -28
27 -100 40 -89 17 -102 18 -127 14z"/>
<path d="M1397 2422 c-30 -33 -16 -82 23 -82 18 0 60 40 60 57 0 14 -34 43
-52 43 -8 0 -22 -8 -31 -18z"/>
<path d="M1580 2421 c-15 -29 -12 -46 11 -67 15 -13 24 -16 36 -8 27 17 36 39
29 67 -5 22 -12 27 -36 27 -19 0 -33 -7 -40 -19z"/>
<path d="M6360 2421 c-5 -11 -10 -24 -10 -29 0 -25 203 -26 240 -1 13 8 11 13
-9 29 -19 17 -38 20 -117 20 -82 0 -95 -2 -104 -19z"/>
<path d="M6683 2414 c-18 -28 -12 -48 20 -68 35 -22 76 51 45 82 -20 20 -46
14 -65 -14z"/>
<path d="M6877 2422 c-36 -39 -14 -72 48 -72 69 0 87 37 33 70 -41 25 -60 25
-81 2z"/>
<path d="M6197 2404 c-9 -10 2 -24 19 -24 8 0 14 7 14 15 0 15 -21 21 -33 9z"/>
<path d="M6255 2352 c-26 -17 -95 -87 -95 -98 0 -1 24 8 53 21 63 30 121 32
165 5 18 -11 37 -20 42 -20 19 0 9 35 -18 67 -35 43 -102 54 -147 25z"/>
<path d="M1956 2331 c-11 -12 -25 -21 -31 -21 -17 0 -27 -28 -14 -36 5 -3 26
2 46 11 46 22 108 14 174 -22 60 -32 74 -24 28 17 -48 43 -83 60 -137 67 -39
4 -50 2 -66 -16z"/>
<path d="M2024 2186 c-15 -62 29 -116 80 -96 51 19 61 90 12 90 -13 0 -26 4
-28 9 -1 5 -15 13 -30 16 -23 6 -28 3 -34 -19z"/>
<path d="M6224 2187 c-40 -20 -46 -43 -20 -74 21 -24 28 -26 51 -18 68 24 85
106 22 104 -18 -1 -42 -6 -53 -12z"/>
</g>
</svg>
